<svg width="15" height="17" viewBox="0 0 15 17" fill="none" xmlns="http://www.w3.org/2000/svg">
<path d="M9.16667 0H5.83333C2.60256 0 0 2.65462 0 5.95V8.5C0 10.8015 1.29487 12.8938 3.33333 13.8746V16.7254C3.33333 16.8692 3.46154 17 3.62821 17C3.69231 17 3.76923 16.9738 3.82051 16.9215L6.23077 14.45H9.16667C12.3974 14.45 15 11.7954 15 8.5V5.95C15 2.65462 12.3974 0 9.16667 0ZM11.359 11.1546L10.5256 12.0046C9.62821 12.8938 7.32051 11.8738 5.28205 9.75539C3.24359 7.63692 2.33333 5.24385 3.19231 4.35462L4.02564 3.50462C4.35897 3.19077 4.88462 3.20385 5.21795 3.53077L6.42308 4.81231C6.73077 5.15231 6.73077 5.66231 6.39744 6.00231C6.30769 6.09385 6.20513 6.14615 6.08974 6.19846C5.66667 6.32923 5.44872 6.74769 5.55128 7.17923C5.75641 8.12077 6.92308 9.29769 7.80769 9.53308C8.21795 9.63769 8.64103 9.40231 8.78205 8.99692C8.92308 8.57846 9.38462 8.34308 9.82051 8.48692C9.94872 8.52615 10.0513 8.61769 10.1538 8.69615L11.359 9.97769C11.6667 10.2915 11.6667 10.8146 11.359 11.1546ZM8.24359 4.04077C8.15385 4.04077 8.07692 4.04077 8 4.06692C7.85897 4.09308 7.70513 3.97538 7.69231 3.80538C7.67949 3.63538 7.78205 3.50462 7.9359 3.49154C8.03846 3.46538 8.14103 3.46538 8.24359 3.46538C9.78205 3.46538 11.0128 4.74692 11.0385 6.29C11.0385 6.39462 11.0385 6.49923 11.0128 6.60385C10.9872 6.74769 10.8718 6.87846 10.7051 6.85231C10.5385 6.82615 10.4359 6.70846 10.4615 6.53846C10.4615 6.44692 10.4872 6.36846 10.4872 6.29C10.4744 5.06077 9.47436 4.04077 8.24359 4.04077ZM9.91026 6.31615C9.88462 6.46 9.76923 6.59077 9.60256 6.56462C9.47436 6.53846 9.35897 6.43385 9.35897 6.31615C9.35897 5.70154 8.85898 5.19154 8.25641 5.19154C8.11539 5.21769 7.96154 5.08692 7.94872 4.93C7.92308 4.78615 8.05128 4.62923 8.19231 4.61615H8.23077C9.19231 4.61615 9.91026 5.37462 9.91026 6.31615ZM12.0385 7.21846C12.0128 7.36231 11.8718 7.46692 11.7308 7.45385C11.5897 7.44077 11.4872 7.28385 11.5 7.14C11.5 7.11385 11.5 7.11385 11.5 7.10077C11.5641 6.85231 11.5897 6.59077 11.5897 6.31615C11.5897 4.44615 10.0897 2.91615 8.25641 2.91615C8.16667 2.91615 8.08974 2.91615 8.01282 2.91615C7.8718 2.94231 7.71795 2.81154 7.71795 2.65462C7.69231 2.51077 7.82051 2.35385 7.96154 2.35385C8.0641 2.35385 8.16667 2.32769 8.25641 2.32769C10.3974 2.32769 12.1538 4.10615 12.1538 6.30308C12.141 6.60385 12.1026 6.93077 12.0385 7.21846Z" fill="#314E5C"/>
</svg>
