<svg width="20" height="20" viewBox="0 0 20 20" fill="none" xmlns="http://www.w3.org/2000/svg">
<g clip-path="url(#clip0_412_1211)">
<path fill-rule="evenodd" clip-rule="evenodd" d="M5.65715 6.75384C5.2098 6.78975 4.79288 6.82615 4.4281 6.85952C3.24856 6.96744 2.31228 7.90379 2.20514 9.09955C2.10953 10.1665 2 11.6325 2 12.7692C2 13.9059 2.10953 15.372 2.20514 16.439C2.31228 17.6347 3.24856 18.5711 4.4281 18.679C5.90994 18.8145 8.25218 19 10 19C11.7478 19 14.09 18.8145 15.5719 18.679C16.7515 18.5711 17.6877 17.6347 17.7948 16.439C17.8905 15.372 18 13.9059 18 12.7692C18 11.6325 17.8905 10.1665 17.7948 9.09955C17.6877 7.90379 16.7515 6.96744 15.5719 6.85952C15.2071 6.82615 14.7902 6.78975 14.3428 6.75384L12.9715 6.65369C11.9556 6.58756 10.8992 6.53846 10 6.53846C9.1008 6.53846 8.04432 6.58756 7.02857 6.65369L5.65715 6.75384ZM6.399 8.08535L6.38805 8.08615C5.71577 8.13577 5.08204 8.18998 4.55187 8.23852C4.02722 8.28649 3.61802 8.69941 3.57099 9.22429C3.47584 10.2861 3.37143 11.6994 3.37143 12.7692C3.37143 13.8391 3.47584 15.2523 3.57099 16.3141C3.61802 16.839 4.02722 17.2519 4.55187 17.3C6.03226 17.4354 8.32009 17.6153 10 17.6153C11.6799 17.6153 13.9677 17.4354 15.4481 17.3C15.9728 17.2519 16.382 16.839 16.429 16.3141C16.5242 15.2523 16.6285 13.8391 16.6285 12.7692C16.6285 11.6994 16.5242 10.2861 16.429 9.22429C16.382 8.6995 15.9728 8.28649 15.4481 8.23852C14.918 8.18998 14.2843 8.13577 13.6119 8.08615L13.601 8.08535C12.399 7.99678 11.075 7.92308 10 7.92308C8.92498 7.92308 7.601 7.99678 6.399 8.08535ZM10.6857 11.8462C10.6857 11.4638 10.3787 11.1539 10 11.1539C9.62133 11.1539 9.31431 11.4638 9.31431 11.8462V13.6923C9.31431 14.0747 9.62133 14.3846 10 14.3846C10.3787 14.3846 10.6857 14.0747 10.6857 13.6923V11.8462Z" fill="#314E5C"/>
<path fill-rule="evenodd" clip-rule="evenodd" d="M14.9143 1C16.8078 1 18.3429 2.54978 18.3429 4.46153H16.9714C16.9714 3.31448 16.0504 2.38461 14.9143 2.38461H13.0857C11.9496 2.38461 11.0285 3.31448 11.0285 4.46153V6.65369L9.65716 6.75384V4.46153C9.65716 2.54978 11.1922 1 13.0857 1H14.9143Z" fill="#314E5C"/>
</g>
<defs>
<clipPath id="clip0_412_1211">
<rect width="20" height="20" fill="white"/>
</clipPath>
</defs>
</svg>
