<svg width="24" height="24" viewBox="0 0 24 24" fill="none" xmlns="http://www.w3.org/2000/svg">
<path d="M11.9994 0.375C11.3783 0.375 10.8744 0.878542 10.8744 1.5V13.5681L8.23839 10.9321C7.17871 9.90473 5.61774 11.4591 6.64762 12.5229C6.64757 12.5229 11.204 17.0793 11.204 17.0793C11.6294 17.5208 12.369 17.5064 12.7948 17.0793C12.7948 17.0793 17.3512 12.523 17.3512 12.523C18.3777 11.4609 16.8251 9.9034 15.7603 10.9322C15.7604 10.9321 13.1244 13.5681 13.1244 13.5681V1.5C13.1244 0.878542 12.6205 0.375 11.9994 0.375Z" fill="#716F7D"/>
<path d="M2.8877 15.1582C2.2666 15.1582 1.7627 15.6617 1.7627 16.2832V17.9429C1.7627 21.0754 4.31153 23.6243 7.4441 23.6243H16.5569C19.6895 23.6243 22.2383 21.0754 22.2383 17.9429V16.2832C22.2383 15.6617 21.7344 15.1582 21.1133 15.1582C20.4922 15.1582 19.9883 15.6617 19.9883 16.2832V17.9429C19.9883 19.8351 18.4487 21.3743 16.5569 21.3743H7.44409C5.55224 21.3743 4.01269 19.8351 4.01269 17.9429V16.2832C4.0127 15.6617 3.50879 15.1582 2.8877 15.1582Z" fill="#716F7D"/>
</svg>
