<svg width="24" height="24" viewBox="0 0 24 24" fill="none" xmlns="http://www.w3.org/2000/svg">
<path d="M12.0005 18.4346C14.7205 18.4346 16.9355 16.2196 16.9355 13.4996V6.49957C16.9355 3.77457 14.7205 1.55957 11.9955 1.55957C9.27555 1.55957 7.06055 3.77457 7.06055 6.49957V13.4996C7.06555 16.2246 9.28055 18.4346 12.0005 18.4346ZM7.94055 6.49957C7.94055 4.25957 9.76055 2.43457 12.0055 2.43457C14.2455 2.43457 16.0655 4.25457 16.0655 6.49957V13.4996C16.0655 15.7396 14.2405 17.5596 12.0005 17.5596C9.76055 17.5596 7.94055 15.7396 7.94055 13.4996V6.49957Z" fill="white"/>
<path d="M7.94055 6.49957C7.94055 4.25957 9.76055 2.43457 12.0055 2.43457C14.2455 2.43457 16.0655 4.25457 16.0655 6.49957V13.4996C16.0655 15.7396 14.2405 17.5596 12.0005 17.5596C9.76055 17.5596 7.94055 15.7396 7.94055 13.4996V6.49957Z" fill="white"/>
<path d="M5.50055 10.0654C5.26055 10.0654 5.06055 10.2604 5.06055 10.5054V13.5054C5.06055 17.1904 7.90055 20.1954 11.5605 20.4204V21.5654H10.0005C9.76055 21.5654 9.56055 21.7604 9.56055 22.0054C9.56055 22.2454 9.75555 22.4404 10.0005 22.4404H14.0005C14.2405 22.4404 14.4405 22.2454 14.4405 22.0054C14.4405 21.7654 14.2455 21.5654 14.0005 21.5654H12.4355V20.4204C16.0955 20.1954 18.9355 17.1904 18.9355 13.5054V10.5054C18.9355 10.2654 18.7405 10.0654 18.4955 10.0654C18.2555 10.0654 18.0555 10.2604 18.0555 10.5054V13.5054C18.0555 16.8504 15.3355 19.5654 11.9905 19.5654C8.64555 19.5654 5.93055 16.8454 5.93055 13.5054V10.5054C5.94055 10.2604 5.74055 10.0654 5.50055 10.0654Z" fill="white"/>
</svg>
