<svg width="20" height="20" viewBox="0 0 20 20" fill="none" xmlns="http://www.w3.org/2000/svg">
<g clip-path="url(#clip0_543_11007)">
<path d="M10.7909 12.7956L8.48182 10.5137L8.5091 10.4865C10.0909 8.72282 11.2182 6.69556 11.8818 4.55009H14.5455V2.72738H8.18182V0.90918H6.36363V2.72738H0V4.53645H10.1545C9.5409 6.29099 8.5818 7.95462 7.2727 9.4092C6.42725 8.46829 5.72723 7.44556 5.1727 6.36373H3.35455C4.01817 7.84553 4.92729 9.24556 6.06363 10.5092L1.4409 15.0774L2.72727 16.3637L7.27275 11.8183L10.1 14.6456L10.7909 12.7956Z" fill="#20282B"/>
<path d="M15.9091 8.18164H14.0909L10 19.0907H11.8182L12.8409 16.3635H17.1591L18.1818 19.0907H20L15.9091 8.18164ZM13.5227 14.5453L15 10.6044L16.4773 14.5453H13.5227Z" fill="#20282B"/>
</g>
<defs>
<clipPath id="clip0_543_11007">
<rect width="20" height="20" fill="white"/>
</clipPath>
</defs>
</svg>
