<svg width="108" height="36" viewBox="0 0 108 36" fill="none" xmlns="http://www.w3.org/2000/svg">
<path d="M57.0943 31.3022C57.5611 30.8855 58.1611 30.9578 58.4 30.1244C58.639 29.2909 59.4113 25.8295 59.0557 24.446C58.7001 23.0625 58.7612 22.3013 58.8168 21.329C58.8779 20.3567 58.1056 15.4395 57.75 15.2339C57.3944 15.0283 56.6832 13.9893 56.561 13.7782C54.6608 14.4727 49.0213 16.5507 46.7655 7.33864C45.4598 6.78302 44.9264 5.95516 44.2152 6.16074C43.504 6.36632 43.0873 7.06083 42.7318 6.29964C42.3762 5.53845 42.6151 4.36056 43.743 4.01608C44.8709 3.6716 45.7043 3.11597 46.3543 2.69926C47.01 2.28255 47.7767 2.49369 48.1379 2.21588C48.4935 1.93807 48.6713 2.4937 48.9102 3.59937C49.1491 4.70504 50.6937 9.62776 53.1828 9.62776C55.672 9.62776 57.161 4.7106 59.4779 4.01608C61.7948 3.32156 61.2003 -0.30104 64.7618 0.0212157C68.3233 0.343471 69.0345 2.28256 70.4624 3.18266C71.8848 4.08275 75.5296 5.95517 75.5185 9.62222C75.5074 13.2948 74.8518 18.212 75.8019 20.7012C76.752 23.1959 75.863 23.5403 75.563 24.7849C75.2685 26.0295 74.3184 30.2855 74.3184 31.1578C74.3184 32.0301 72.596 32.5524 72.2404 32.0301C71.8848 31.5078 71.8848 31.0911 72.5349 30.9522C73.1849 30.8133 73.5461 29.7743 73.7794 28.7353C74.0183 27.6963 74.2517 22.918 74.135 21.8068C74.0183 20.7011 71.5236 28.7464 71.3458 29.7799C71.1681 30.8133 70.8736 31.2245 69.8624 31.1578C68.8511 31.0911 68.6178 29.9799 69.2678 29.7743C69.9235 29.5687 70.5735 28.4575 71.0514 26.3795C71.5236 24.3015 71.8237 20.6289 71.707 19.7288C71.5903 18.8287 69.7457 14.7394 70.4013 12.8725C67.2565 15.0172 66.8398 15.9173 60.667 15.5062C60.428 17.862 60.428 18.9009 60.6058 20.0788C60.7836 21.2568 60.9003 26.5184 60.7836 27.9741C60.667 29.4298 61.5559 29.9799 61.2003 30.4688C60.8447 30.9578 59.9558 31.0911 59.778 31.1633C60.0724 31.719 55.7998 32.4802 57.1055 31.3022H57.0943Z" fill="white"/>
<path d="M42.7262 29.9021C42.6429 27.8241 42.3873 21.2845 41.7928 20.59C41.1983 19.8955 38.5647 12.9615 38.3091 10.0889C38.0535 7.21642 36.7812 4.9384 32.0251 3.74939C30.6639 1.27135 29.3082 1.17134 28.2025 0.382369C27.0968 -0.412158 26.5912 2.56038 25.4856 2.36591C24.3799 2.16589 20.8129 2.26589 18.3515 5.23843C15.8901 8.21096 12.1842 9.31664 10.1117 6.42745C8.12264 3.65494 8.24487 4.34944 7.47812 2.8604C6.71138 1.37691 6.01686 0.587944 5.30567 1.26579C2.87209 3.5827 0.288488 2.83818 0.0329059 4.72171C-0.167115 5.38289 0.599629 5.74403 0.855211 6.33298C1.11079 6.92749 3.92775 6.47188 4.45003 6.98861C7.51702 10.0167 7.30033 13.7004 13.3287 13.9449C15.7901 14.0449 16.3013 12.667 17.3236 13.5615C18.3404 14.4505 18.3404 15.9395 18.3404 15.9395C18.3404 15.9395 14.69 21.1901 14.8567 22.7736C15.0289 24.3571 14.5177 30.2021 13.2454 30.6966C11.973 31.1911 12.7342 32.1801 14.4344 31.9857C16.1346 31.7912 15.3678 27.4296 16.0457 25.3461C16.7235 23.2681 20.035 17.6175 21.3129 16.8285C22.8408 21.9791 22.5853 22.2791 23.2687 23.6626C23.9465 25.0516 24.4577 30.4022 23.1853 30.5966C21.913 30.7967 23.8632 31.6856 24.7966 31.2912C25.73 30.8967 25.1355 28.6186 24.9688 26.9296C24.7966 25.2461 25.6467 22.768 24.9688 21.579C24.291 20.39 23.1853 16.0284 23.5242 16.0284C23.8632 16.0284 32.5252 13.8504 33.4586 12.3614C33.8809 15.0339 33.542 17.2175 34.6476 18.6009C35.7533 19.99 35.1588 22.7625 34.9865 24.0515C34.8143 25.3405 33.0308 29.7965 31.3362 30.391C29.636 30.9855 31.8473 31.9746 32.9474 31.3801C34.0531 30.7855 35.2421 26.0295 36.1756 25.1405C37.109 24.2515 36.5978 18.0064 37.2812 17.3119C39.0648 20.0844 41.2705 22.7625 41.2705 26.1295C41.2705 29.4965 41.3539 29.002 40.5038 30.091C39.6537 31.18 42.7485 30.78 42.7096 29.891L42.7262 29.9021Z" fill="white"/>
<path d="M94.0928 35.4364C92.5704 36.0087 90.8424 35.9864 89.4923 35.2753C89.909 33.8418 89.8367 33.9362 89.3589 32.4027C88.8366 30.7248 87.4643 28.819 87.6587 26.9466C88.0088 23.5518 89.1589 20.2626 89.5478 16.8178C89.6534 15.8621 89.6145 14.9398 89.8423 14.023C90.0923 13.0007 90.6424 12.2673 90.4979 11.1339C90.3535 9.98374 89.5312 9.02808 90.4479 7.97242C91.4869 6.77785 92.9482 7.7335 93.2704 9.16142C93.4371 9.89483 92.7148 10.5838 92.9037 11.2728C93.2593 12.5618 94.515 12.6785 94.6761 14.3064C95.0373 17.8901 94.6928 21.3794 94.7817 24.9575C94.8095 26.1187 95.0651 27.3133 95.3818 28.419C95.7429 29.6636 97.7931 31.6582 96.9764 33.0695C96.3263 34.1974 95.2706 34.9975 94.0983 35.442L94.0928 35.4364Z" fill="white"/>
<path d="M106.744 35.225C106.105 36.1084 103.538 35.8639 102.666 35.8917C100.038 35.9862 98.6376 35.6083 99.2599 32.0857C99.7711 29.1743 101.016 26.5185 101.744 23.696C102.549 20.5568 102.71 17.3787 103.138 14.1561C103.283 13.056 103.444 12.5726 103.355 11.4614C103.255 10.2446 102.255 9.12779 103.266 7.96656C104.305 6.77199 105.766 7.72765 106.088 9.15558C106.255 9.88899 105.533 10.5779 105.722 11.2669C106.077 12.5559 107.333 12.6726 107.494 14.3005C107.944 18.8232 107.75 22.9292 107.394 27.4241C107.244 29.3077 107.839 33.6915 106.75 35.225H106.744Z" fill="white"/>
<path fill-rule="evenodd" clip-rule="evenodd" d="M70.918 13.7116C70.868 13.8561 70.8402 14.0172 70.8235 14.195C70.7902 13.7561 70.8124 13.3616 70.918 13.0616L71.1736 12.3226L71.4736 12.117L70.918 13.7116ZM58.9334 30.9245C59.0945 30.3522 59.7724 27.5186 59.689 25.724C59.6224 27.4853 59.0779 29.7688 58.9334 30.2744C58.7723 30.8301 58.4778 31.1134 58.1889 31.2968C58.4278 31.2579 58.6556 31.2023 58.8501 31.1412L58.853 31.1338C58.8614 31.1124 58.8702 31.0919 58.8791 31.0714C58.8988 31.0257 58.9186 30.9801 58.9334 30.9245ZM99.7988 32.8358C100.093 31.169 100.649 29.541 101.188 27.9687L101.226 27.8561C101.598 26.7632 101.981 25.6346 102.277 24.4905C102.86 22.2125 103.116 19.8845 103.36 17.6342L103.369 17.5594C103.466 16.6728 103.564 15.781 103.683 14.884C103.709 14.6773 103.739 14.4916 103.767 14.3185L103.767 14.3132L103.778 14.2468L103.788 14.1839C103.883 13.5949 103.955 13.1115 103.921 12.3892C103.905 12.7781 103.852 13.1197 103.793 13.5007L103.788 13.5338C103.761 13.7031 103.735 13.8831 103.705 14.0823L103.683 14.2339C103.56 15.1562 103.46 16.0674 103.36 16.9842C103.116 19.2344 102.86 21.5624 102.277 23.8405C101.971 25.0239 101.577 26.1907 101.188 27.3186C100.649 28.891 100.099 30.5189 99.7988 32.1858C99.6765 32.8692 99.6377 33.4248 99.671 33.8637C99.6877 33.5581 99.7321 33.2192 99.7988 32.8358ZM92.3536 11.328C92.3091 11.5614 92.298 11.8059 92.3647 12.067C92.5586 12.7761 92.9678 13.1979 93.3282 13.5694L93.3314 13.5727L93.3375 13.579C93.7347 13.9872 94.0486 14.3097 94.1204 15.0117C94.226 16.0785 94.2704 17.1453 94.2815 18.2121C94.2815 16.9342 94.2482 15.6452 94.1204 14.3617C94.0482 13.6505 93.7315 13.3282 93.3314 12.9226L93.317 12.9077C92.9594 12.5392 92.5565 12.1241 92.3647 11.4169C92.3624 11.4057 92.362 11.3945 92.3615 11.3829C92.3609 11.3658 92.3602 11.3479 92.3536 11.328ZM103.677 8.98334C103.877 8.74998 104.094 8.63331 104.321 8.63331C104.783 8.63331 105.266 9.11114 105.477 9.72787C105.533 9.56119 105.566 9.4056 105.538 9.27781C105.377 8.56107 104.833 7.98324 104.321 7.98324C104.094 7.98324 103.877 8.09992 103.677 8.33328C103.36 8.69443 103.316 9.0278 103.405 9.46673C103.449 9.3056 103.533 9.14446 103.677 8.98334ZM105.16 11.328C105.116 11.5614 105.105 11.8059 105.172 12.067C105.365 12.776 105.775 13.1979 106.135 13.5693L106.138 13.5727L106.144 13.579C106.542 13.9871 106.855 14.3097 106.927 15.0117C107.088 16.6064 107.166 18.1399 107.183 19.69C107.183 17.9176 107.105 16.1785 106.927 14.3617C106.855 13.6505 106.538 13.3282 106.138 12.9226L106.124 12.9077C105.766 12.5392 105.363 12.1241 105.172 11.4169C105.169 11.4057 105.169 11.3945 105.168 11.3829C105.168 11.3658 105.167 11.3479 105.16 11.328ZM72.2681 20.6679C72.2292 22.2347 71.9514 24.9017 71.5792 26.513C71.068 28.741 70.3457 30.0189 69.4512 30.2856C69.4512 30.3022 69.4512 30.3633 69.5012 30.43C69.5456 30.4911 69.6567 30.6023 69.8957 30.6189H70.0068C70.3179 30.3578 70.6013 29.9522 70.8624 29.4021C71.018 28.7632 71.3847 27.5186 71.7625 26.3018C72.0959 24.4127 72.3181 21.8236 72.2792 20.6679H72.2681ZM43.2262 5.76635C43.3484 5.48854 43.5762 5.29407 43.8985 5.19406C45.0319 4.84403 45.8654 4.31619 46.5321 3.88837L46.6488 3.81614C46.8933 3.66056 47.1877 3.62723 47.4989 3.59389L47.506 3.59316C47.7204 3.57117 47.9401 3.54866 48.1434 3.47722C48.2045 3.67168 48.2767 3.96616 48.3656 4.36064C48.3767 4.42732 49.8991 10.828 53.1828 10.828C54.8032 10.828 55.9503 9.27005 57.0622 7.75974L57.0776 7.73877C57.9 6.61643 58.75 5.46076 59.6335 5.19406C60.8114 4.84403 61.3614 3.88837 61.8448 3.04384C62.4338 2.01596 62.906 1.20475 64.3229 1.20475C64.4451 1.20475 64.5729 1.2103 64.7062 1.22141C67.062 1.4381 68.0232 2.37154 68.9511 3.27719L68.9863 3.31136C69.3623 3.67675 69.7205 4.02488 70.1624 4.30508C70.2215 4.34111 70.2831 4.37953 70.3477 4.41978C70.4224 4.46642 70.5011 4.51552 70.5846 4.56622C72.0848 5.47742 74.8406 7.16648 74.9462 10.0835C74.9462 10.0084 74.949 9.93066 74.9517 9.85288C74.9545 9.7751 74.9573 9.69731 74.9573 9.6223C74.9684 6.59411 72.1332 4.86215 70.6013 3.92632L70.5846 3.91614C70.429 3.82169 70.2846 3.73279 70.1624 3.655C69.7123 3.37164 69.3401 3.01051 68.9511 2.62713L68.9502 2.62627C68.0226 1.72089 67.0668 0.787976 64.7062 0.571355C64.5729 0.560243 64.4451 0.554688 64.3229 0.554688C62.906 0.554688 62.4338 1.36588 61.8448 2.39377C61.3614 3.2383 60.8058 4.19395 59.6335 4.54399C58.75 4.81068 57.9 5.96637 57.0776 7.08871C55.9664 8.60553 54.8108 10.1779 53.1828 10.1779C49.8991 10.1779 48.3767 3.77724 48.3656 3.71057C48.2823 3.31608 48.2045 3.01605 48.1434 2.82714C47.9401 2.89858 47.7204 2.9211 47.506 2.94309L47.4989 2.94382L47.4778 2.94607C47.1747 2.97848 46.8932 3.00858 46.6488 3.16606L46.5321 3.23829C45.8654 3.66612 45.0319 4.19395 43.8985 4.54399C43.5762 4.644 43.354 4.83291 43.2262 5.11627C43.1151 5.36074 43.104 5.65522 43.1762 5.91635C43.1818 5.89969 43.1867 5.88302 43.1916 5.86636C43.2015 5.83302 43.2114 5.79968 43.2262 5.76635ZM89.1477 22.5959C89.5199 20.9568 89.9033 19.2566 90.0978 17.5287C90.1367 17.1786 90.1589 16.8342 90.1756 16.4952C90.2089 15.9063 90.2422 15.3451 90.3756 14.8062C90.4414 14.5329 90.5348 14.278 90.6307 14.0164L90.6589 13.9394C90.8923 13.3171 91.1312 12.6726 91.0534 11.8225C91.0034 12.367 90.8312 12.8337 90.6589 13.2838C90.5478 13.5727 90.4478 13.8505 90.3756 14.1506C90.2422 14.6895 90.2089 15.2507 90.1756 15.8396L90.1688 15.9448L90.1618 16.0568C90.1452 16.3254 90.1284 16.5975 90.0978 16.8731C89.9033 18.5955 89.5199 20.2956 89.1477 21.9402L89.132 22.0097C88.7646 23.644 88.384 25.3365 88.2087 27.0019C88.1864 27.2075 88.192 27.413 88.2087 27.6186C88.3865 25.9407 88.7699 24.2405 89.1421 22.5903L89.1477 22.5959ZM90.8645 8.9889C91.0645 8.75554 91.2812 8.63886 91.509 8.63886C91.9702 8.63886 92.4536 9.11669 92.6647 9.73342C92.7203 9.56673 92.7536 9.41116 92.7258 9.28337C92.5647 8.56663 92.0202 7.9888 91.509 7.9888C91.2812 7.9888 91.0645 8.10548 90.8645 8.33884C90.5645 8.68332 90.5312 8.9889 90.62 9.41117C90.6645 9.27226 90.7367 9.13336 90.8645 8.99446V8.9889ZM15.4455 23.7849C15.4446 23.8307 15.4436 23.8774 15.4423 23.9251C15.4418 23.8763 15.441 23.8296 15.44 23.7849H15.4455ZM15.4423 23.9251C15.3823 26.2354 14.9154 30.6473 13.4564 31.2134C13.3675 31.2468 13.3064 31.2801 13.2564 31.3079C13.3787 31.369 13.612 31.4468 13.9787 31.4523C14.5732 30.7245 14.9455 29.2521 15.1677 27.752C15.2066 27.0574 15.2622 26.3685 15.3789 25.7684C15.4292 25.039 15.4476 24.3915 15.4423 23.9251ZM31.5361 30.9245C31.6972 30.9801 31.9084 31.019 32.1362 31.019C32.2473 31.019 32.3529 31.0079 32.4473 30.9856C32.7807 30.68 33.0918 30.2967 33.3918 29.8633C33.6799 29.2771 33.9725 28.5439 34.2154 27.9353L34.2864 27.7575C34.392 27.4964 34.492 27.2464 34.5864 27.0074C33.8419 28.6854 32.7362 30.4967 31.5306 30.9245H31.5361ZM24.5354 27.8575C24.552 28.9132 24.4409 29.8911 24.1409 30.4689C24.0687 30.6078 23.9909 30.7189 23.9075 30.8078C24.0131 30.8245 24.1298 30.8356 24.2409 30.8356H24.2631C24.4743 30.2467 24.552 29.4077 24.5409 28.5076C24.5461 28.5516 24.5525 28.5957 24.559 28.6402C24.5664 28.6913 24.5739 28.7431 24.5798 28.7965L24.5926 28.8897C24.6482 29.2935 24.7268 29.8642 24.7576 30.3633C24.8121 29.7864 24.6692 28.7777 24.585 28.1831L24.5798 28.1465C24.5743 28.0992 24.5673 28.0506 24.5604 28.002C24.5534 27.9534 24.5465 27.9048 24.5409 27.8575H24.5354ZM15.4289 22.7181C15.44 22.807 15.4456 22.9348 15.4511 23.0793C15.6622 21.8625 17.468 18.8455 18.8126 16.9064L18.9126 16.7619V16.5897C18.9126 16.5897 18.9126 16.4063 18.8792 16.1619L18.8126 16.2563C17.3457 18.3677 15.3233 21.7624 15.4289 22.7181ZM60.2224 28.5687V28.5909C60.1613 29.3632 60.3391 29.9244 60.5058 30.3356C60.5891 30.2911 60.6614 30.2411 60.7114 30.1911C60.6891 30.1189 60.6391 29.9966 60.5947 29.8966L60.5885 29.8823C60.4556 29.5722 60.2717 29.1432 60.2224 28.5687ZM41.3705 20.9624C40.6648 20.1345 38.0201 13.1227 37.759 10.1501C37.5534 7.82211 36.6978 5.49964 31.8917 4.29952L31.6583 4.23841L31.5417 4.02727C30.6138 2.33821 29.7193 1.86594 28.8525 1.41034C28.5302 1.24365 28.2024 1.0714 27.8857 0.8436C27.8759 0.83626 27.8672 0.831076 27.8606 0.827098C27.8521 0.822043 27.8468 0.818936 27.8468 0.815827C27.6968 0.876944 27.3968 1.33809 27.2357 1.58812L27.2291 1.59821C26.8196 2.2291 26.3593 2.93827 25.5966 2.93827C25.5299 2.93827 25.4633 2.93272 25.391 2.92161C25.2799 2.89938 25.0299 2.86604 24.6465 2.86604C23.802 2.86604 20.885 3.0605 18.7848 5.59965C17.1902 7.52763 15.1177 8.67775 13.2509 8.67775C11.8063 8.67775 10.5673 8.01657 9.66717 6.76088C8.73929 5.4663 8.27813 4.93847 7.97254 4.59399C7.58361 4.1495 7.40582 3.93282 6.98911 3.12718C6.20569 1.6048 5.85011 1.58812 5.83344 1.58812C5.81677 1.58812 5.76677 1.60479 5.69454 1.67702C4.46396 2.85265 3.2171 3.28414 2.21173 3.63205L2.1775 3.6439C1.04405 4.03283 0.666228 4.21062 0.588442 4.80513V4.84959L0.571775 4.89403C0.54955 4.9607 0.571767 5.03293 0.677334 5.16627C0.844018 4.79401 1.26073 4.61622 2.18305 4.29952C3.19427 3.95504 4.44995 3.52165 5.70008 2.33264C5.77787 2.26041 5.82232 2.24376 5.83898 2.24376C5.85565 2.24376 6.21125 2.26042 6.99467 3.7828C7.41138 4.594 7.58361 4.80512 7.9781 5.24961C8.28369 5.59409 8.74484 6.12194 9.67271 7.41652C10.5728 8.6722 11.8118 9.33337 13.2564 9.33337C15.1233 9.33337 17.1957 8.18327 18.7903 6.25529C20.8906 3.71613 23.8075 3.52166 24.6521 3.52166C25.0354 3.52166 25.2855 3.555 25.3966 3.57723C25.4633 3.58834 25.5355 3.59389 25.6022 3.59389C26.3649 3.59389 26.8252 2.8847 27.2347 2.2538L27.2412 2.24376C27.4024 1.99373 27.7024 1.53256 27.8524 1.47145C27.8524 1.47145 27.8691 1.48255 27.8913 1.49922C28.208 1.72702 28.5358 1.89927 28.858 2.06596L28.8656 2.0699C29.73 2.52426 30.622 2.99316 31.5472 4.68289L31.6639 4.89403L31.8972 4.95514C36.7033 6.15526 37.5534 8.47773 37.7645 10.8057C38.0257 13.7838 40.6704 20.7901 41.376 21.618C41.5372 21.8791 41.865 23.3404 42.1483 29.9022C42.1539 29.8966 42.1706 29.8911 42.1761 29.8855V29.78C41.8816 22.7681 41.5427 21.2402 41.376 20.9679L41.3705 20.9624ZM94.8483 28.5743C94.4594 27.2186 94.2538 26.0407 94.226 24.9739C94.2149 24.4461 94.2149 23.9182 94.2149 23.396C94.2038 24.1349 94.2038 24.8794 94.226 25.6295C94.2538 26.6963 94.4538 27.8742 94.8483 29.2299C94.984 29.7024 95.295 30.212 95.6254 30.7536L95.6484 30.7912C96.0206 31.3968 96.4207 32.058 96.554 32.6247C96.7596 31.958 96.1762 30.9968 95.6484 30.1411L95.6254 30.1035C95.295 29.5619 94.984 29.0523 94.8483 28.5798V28.5743ZM74.7295 16.7341C74.7073 18.6066 74.8073 20.3345 75.274 21.5624C75.4851 22.118 75.5907 22.5403 75.6352 22.8903C75.7018 22.4459 75.6351 21.8736 75.274 20.9124C74.8628 19.8289 74.7351 18.3565 74.7295 16.7341ZM72.646 31.5079C72.646 31.5079 72.5959 31.519 72.5793 31.5246C72.5959 31.5635 72.6237 31.6135 72.6682 31.6857C72.6768 31.6857 72.687 31.6874 72.6996 31.6894C72.7196 31.6927 72.7453 31.6968 72.7793 31.6968C73.1127 31.6968 73.496 31.519 73.6683 31.3412C73.6849 31.3135 73.7002 31.2857 73.7155 31.2579L73.7225 31.2452C73.728 31.2352 73.7336 31.2252 73.7392 31.2152C73.7468 31.2016 73.7546 31.1881 73.7627 31.1745C73.7627 31.0023 73.7961 30.7189 73.8461 30.3745C73.5794 30.9412 73.2016 31.3912 72.6515 31.5079H72.646ZM35.6254 24.2849C35.7421 23.5126 35.8977 22.4681 35.8588 21.4458C35.8317 22.2249 35.7204 22.983 35.6324 23.5815L35.6254 23.6293C35.6213 23.6577 35.6171 23.6855 35.6129 23.7129L35.6021 23.7843C35.5828 23.9111 35.5651 24.0273 35.5532 24.1349C35.4976 24.5461 35.2532 25.3851 34.8753 26.3407C35.0754 25.8796 35.2754 25.4851 35.4754 25.1795C35.5143 25.0239 35.5365 24.8961 35.5532 24.7905C35.5629 24.7253 35.5725 24.6558 35.5827 24.5831C35.5958 24.4886 35.6097 24.3885 35.6254 24.2849ZM24.502 22.5125C24.6132 22.7014 24.6632 22.9626 24.6854 23.2626C24.7132 22.6848 24.6854 22.1792 24.502 21.8569C24.0909 21.1346 23.113 18.151 22.963 16.6119C22.763 17.7065 24.0187 21.6624 24.502 22.5125ZM41.8483 27.7464C41.8427 29.2243 41.7649 29.4577 41.1927 30.1633C41.1861 30.1732 41.1795 30.1811 41.1729 30.1894C41.1684 30.1951 41.1639 30.201 41.1593 30.2078C41.3371 30.1967 41.5038 30.1578 41.6594 30.1133C41.8483 29.6688 41.8539 29.1188 41.8483 27.7464Z" fill="white"/>
<path d="M38.1202 9.47276C35.9311 9.47276 33.9864 8.2282 31.9918 6.95029L31.4362 6.59469L31.564 6.31688L32.1196 6.67248C36.3533 9.38943 40.0093 11.7341 46.2933 3.35547L46.4988 3.56104C43.1596 8.01706 40.4927 9.47832 38.1202 9.47832V9.47276Z" fill="white"/>
</svg>
