<svg width="98" height="36" viewBox="0 0 98 36" fill="none" xmlns="http://www.w3.org/2000/svg">
<path d="M57.0942 31.3018C57.5609 30.8851 58.161 30.9573 58.3999 30.1239C58.6388 29.2904 59.4111 25.829 59.0555 24.4455C58.6999 23.062 58.7611 22.3008 58.8166 21.3285C58.8778 20.3562 58.1055 15.439 57.7499 15.2334C57.3943 15.0278 56.6831 13.9888 56.5608 13.7777C54.6606 14.4722 49.0212 16.5502 46.7654 7.33815C45.4597 6.78253 44.9263 5.95467 44.2151 6.16025C43.5039 6.36583 43.0872 7.06034 42.7316 6.29915C42.376 5.53796 42.6149 4.36007 43.7428 4.01559C44.8707 3.67111 45.7042 3.11548 46.3542 2.69877C47.0099 2.28206 47.7766 2.4932 48.1377 2.21539C48.4933 1.93758 48.6711 2.49321 48.9101 3.59888C49.149 4.70455 50.6936 9.62727 53.1827 9.62727C55.6719 9.62727 57.1609 4.71011 59.4778 4.01559C61.7947 3.32107 61.2002 -0.301528 64.7617 0.0207274C68.3232 0.342983 69.0344 2.28208 70.4623 3.18217C71.8847 4.08226 75.5295 5.95468 75.5184 9.62173C75.5073 13.2943 74.8516 18.2115 75.8017 20.7007C76.7518 23.1954 75.8629 23.5398 75.5628 24.7844C75.2684 26.029 74.3182 30.285 74.3182 31.1573C74.3182 32.0296 72.5958 32.5519 72.2403 32.0296C71.8847 31.5073 71.8847 31.0906 72.5347 30.9517C73.1848 30.8128 73.5459 29.7738 73.7793 28.7348C74.0182 27.6958 74.2516 22.9176 74.1349 21.8063C74.0182 20.7007 71.5235 28.7459 71.3457 29.7794C71.1679 30.8128 70.8734 31.224 69.8622 31.1573C68.851 31.0906 68.6177 29.9794 69.2677 29.7738C69.9233 29.5682 70.5734 28.457 71.0513 26.379C71.5235 24.301 71.8236 20.6284 71.7069 19.7283C71.5902 18.8282 69.7456 14.7389 70.4012 12.8721C67.2564 15.0167 66.8397 15.9168 60.6668 15.5057C60.4279 17.8615 60.4279 18.9005 60.6057 20.0784C60.7835 21.2563 60.9002 26.5179 60.7835 27.9736C60.6668 29.4293 61.5558 29.9794 61.2002 30.4683C60.8446 30.9573 59.9556 31.0906 59.7778 31.1629C60.0723 31.7185 55.7997 32.4797 57.1054 31.3018H57.0942Z" fill="white"/>
<path d="M42.7261 29.9016C42.6428 27.8236 42.3872 21.2841 41.7927 20.5895C41.1982 19.895 38.5646 12.961 38.309 10.0885C38.0534 7.21593 36.7811 4.93791 32.025 3.7489C30.6638 1.27086 29.3081 1.17085 28.2024 0.381881C27.0967 -0.412646 26.5911 2.55989 25.4854 2.36543C24.3798 2.1654 20.8127 2.26541 18.3514 5.23794C15.89 8.21047 12.1841 9.31615 10.1116 6.42696C8.12252 3.65445 8.24475 4.34896 7.478 2.85991C6.71125 1.37642 6.01674 0.587456 5.30555 1.2653C2.87196 3.58221 0.288366 2.83769 0.0327838 4.72122C-0.167237 5.3824 0.599507 5.74355 0.855089 6.3325C1.11067 6.927 3.92763 6.4714 4.44991 6.98812C7.5169 10.0162 7.3002 13.6999 13.3286 13.9444C15.79 14.0444 16.3011 12.6665 17.3235 13.561C18.3402 14.45 18.3402 15.9391 18.3402 15.9391C18.3402 15.9391 14.6899 21.1896 14.8565 22.7731C15.0288 24.3566 14.5176 30.2017 13.2453 30.6962C11.9729 31.1906 12.7341 32.1796 14.4343 31.9852C16.1345 31.7907 15.3677 27.4291 16.0456 25.3456C16.7234 23.2676 20.0349 17.617 21.3128 16.828C22.8407 21.9786 22.5851 22.2786 23.2685 23.6621C23.9464 25.0511 24.4576 30.4017 23.1852 30.5961C21.9128 30.7962 23.863 31.6851 24.7965 31.2907C25.7299 30.8962 25.1354 28.6182 24.9687 26.9291C24.7965 25.2456 25.6466 22.7675 24.9687 21.5785C24.2909 20.3895 23.1852 16.028 23.5241 16.028C23.863 16.028 32.5251 13.85 33.4585 12.3609C33.8808 15.0334 33.5418 17.217 34.6475 18.6005C35.7532 19.9895 35.1587 22.762 34.9864 24.051C34.8142 25.34 33.0307 29.796 31.336 30.3906C29.6359 30.9851 31.8472 31.9741 32.9473 31.3796C34.053 30.7851 35.242 26.029 36.1754 25.14C37.1089 24.251 36.5977 18.0059 37.2811 17.3114C39.0646 20.0839 41.2704 22.762 41.2704 26.129C41.2704 29.496 41.3538 29.0015 40.5037 30.0905C39.6536 31.1795 42.7484 30.7795 42.7095 29.8905L42.7261 29.9016Z" fill="white"/>
<path d="M94.0926 35.4359C92.5703 36.0082 90.8423 35.986 89.4922 35.2748C89.9089 33.8413 89.8366 33.9358 89.3588 32.4023C88.8365 30.7243 87.4642 28.8185 87.6586 26.9461C88.0087 23.5513 89.1588 20.2621 89.5477 16.8173C89.6533 15.8616 89.6144 14.9393 89.8422 14.0226C90.0922 13.0002 90.6423 12.2668 90.4978 11.1334C90.3534 9.98325 89.531 9.0276 90.4478 7.97193C91.4868 6.77736 92.9481 7.73301 93.2703 9.16093C93.437 9.89434 92.7147 10.5833 92.9036 11.2723C93.2592 12.5613 94.5149 12.678 94.676 14.3059C95.0372 17.8896 94.6927 21.3789 94.7816 24.957C94.8094 26.1183 95.0649 27.3128 95.3816 28.4185C95.7428 29.6631 97.793 31.6577 96.9763 33.069C96.3262 34.1969 95.2705 34.997 94.0982 35.4415L94.0926 35.4359Z" fill="white"/>
<path fill-rule="evenodd" clip-rule="evenodd" d="M70.9179 13.7111C70.8679 13.8556 70.8401 14.0167 70.8234 14.1945C70.7901 13.7556 70.8123 13.3611 70.9179 13.0611L71.1735 12.3221L71.4735 12.1165L70.9179 13.7111ZM58.9333 30.924C59.0944 30.3518 59.7723 27.5181 59.6889 25.7235C59.6222 27.4848 59.0778 29.7684 58.9333 30.274C58.7722 30.8296 58.4777 31.1129 58.1888 31.2963C58.4277 31.2574 58.6555 31.2018 58.8499 31.1407L58.8528 31.1333C58.8613 31.1119 58.8701 31.0914 58.879 31.0709C58.8987 31.0253 58.9185 30.9796 58.9333 30.924ZM92.3534 11.3275C92.309 11.5609 92.2979 11.8054 92.3645 12.0665C92.5584 12.7756 92.9677 13.1974 93.3281 13.5689L93.3313 13.5722L93.3374 13.5785C93.7346 13.9867 94.0484 14.3092 94.1203 15.0113C94.2259 16.078 94.2703 17.1448 94.2814 18.2116C94.2814 16.9337 94.2481 15.6447 94.1203 14.3612C94.0481 13.65 93.7313 13.3278 93.3313 12.9222L93.3168 12.9073C92.9592 12.5387 92.5564 12.1236 92.3645 11.4164C92.3623 11.4052 92.3619 11.394 92.3614 11.3825C92.3608 11.3653 92.3601 11.3474 92.3534 11.3275ZM72.268 20.6674C72.2291 22.2342 71.9513 24.9012 71.579 26.5125C71.0679 28.7405 70.3456 30.0184 69.451 30.2851C69.451 30.3018 69.451 30.3629 69.5011 30.4295C69.5455 30.4906 69.6566 30.6018 69.8955 30.6184H70.0067C70.3178 30.3573 70.6012 29.9517 70.8623 29.4016C71.0179 28.7627 71.3846 27.5181 71.7624 26.3013C72.0958 24.4122 72.318 21.8231 72.2791 20.6674H72.268ZM43.2261 5.76586C43.3483 5.48805 43.5761 5.29359 43.8984 5.19358C45.0318 4.84354 45.8653 4.3157 46.532 3.88788L46.6487 3.81565C46.8931 3.66008 47.1876 3.62674 47.4988 3.59341L47.5059 3.59267C47.7203 3.57069 47.94 3.54817 48.1433 3.47673C48.2044 3.6712 48.2766 3.96567 48.3655 4.36016C48.3766 4.42683 49.899 10.8275 53.1827 10.8275C54.8031 10.8275 55.9501 9.26956 57.0621 7.75925L57.0775 7.73828C57.8998 6.61594 58.7499 5.46027 59.6334 5.19358C60.8113 4.84354 61.3613 3.88789 61.8447 3.04335C62.4337 2.01547 62.9059 1.20426 64.3227 1.20426C64.445 1.20426 64.5728 1.20981 64.7061 1.22093C67.0619 1.43761 68.0231 2.37105 68.951 3.2767L68.9862 3.31087C69.3621 3.67626 69.7204 4.02439 70.1622 4.30459C70.2214 4.34062 70.283 4.37904 70.3475 4.41929C70.4223 4.46593 70.501 4.51503 70.5845 4.56573C72.0846 5.47694 74.8405 7.166 74.9461 10.083C74.9461 10.008 74.9488 9.93018 74.9516 9.85239C74.9544 9.77461 74.9572 9.69682 74.9572 9.62182C74.9683 6.59362 72.1331 4.86166 70.6011 3.92583L70.5845 3.91565C70.4289 3.8212 70.2845 3.7323 70.1622 3.65452C69.7122 3.37115 69.3399 3.01002 68.951 2.62664L68.9501 2.62578C68.0225 1.7204 67.0667 0.787488 64.7061 0.570867C64.5728 0.559755 64.445 0.554199 64.3227 0.554199C62.9059 0.554199 62.4337 1.36539 61.8447 2.39328C61.3613 3.23781 60.8057 4.19346 59.6334 4.5435C58.7499 4.81019 57.8998 5.96588 57.0775 7.08822C55.9663 8.60504 54.8106 10.1774 53.1827 10.1774C49.899 10.1774 48.3766 3.77675 48.3655 3.71008C48.2822 3.31559 48.2044 3.01557 48.1433 2.82666C47.94 2.89809 47.7203 2.92061 47.5059 2.9426L47.4988 2.94333L47.4777 2.94559C47.1745 2.97799 46.893 3.00809 46.6487 3.16557L46.532 3.23781C45.8653 3.66563 45.0318 4.19346 43.8984 4.5435C43.5761 4.64351 43.3539 4.83242 43.2261 5.11578C43.115 5.36025 43.1039 5.65473 43.1761 5.91587C43.1816 5.8992 43.1866 5.88253 43.1915 5.86587C43.2014 5.83253 43.2113 5.7992 43.2261 5.76586ZM89.1475 22.5954C89.5198 20.9563 89.9032 19.2561 90.0976 17.5282C90.1365 17.1781 90.1588 16.8337 90.1754 16.4948C90.2088 15.9058 90.2421 15.3446 90.3755 14.8057C90.4412 14.5324 90.5347 14.2775 90.6306 14.0159L90.6588 13.9389C90.8922 13.3166 91.1311 12.6721 91.0533 11.822C91.0033 12.3665 90.831 12.8333 90.6588 13.2833C90.5477 13.5722 90.4477 13.85 90.3755 14.1501C90.2421 14.689 90.2088 15.2502 90.1754 15.8391L90.1687 15.9443L90.1617 16.0563C90.1451 16.3249 90.1283 16.597 90.0976 16.8726C89.9032 18.595 89.5198 20.2951 89.1475 21.9398L89.1319 22.0093C88.7644 23.6435 88.3839 25.336 88.2085 27.0014C88.1863 27.207 88.1919 27.4126 88.2085 27.6181C88.3863 25.9402 88.7697 24.24 89.142 22.5898L89.1475 22.5954ZM90.8644 8.98841C91.0644 8.75505 91.2811 8.63837 91.5089 8.63837C91.9701 8.63837 92.4534 9.1162 92.6646 9.73293C92.7201 9.56624 92.7535 9.41067 92.7257 9.28288C92.5646 8.56614 92.0201 7.98831 91.5089 7.98831C91.2811 7.98831 91.0644 8.10499 90.8644 8.33835C90.5644 8.68283 90.531 8.98841 90.6199 9.41068C90.6644 9.27178 90.7366 9.13287 90.8644 8.99397V8.98841ZM15.4454 23.7844C15.4445 23.8302 15.4435 23.8769 15.4422 23.9246C15.4417 23.8758 15.4409 23.8291 15.4399 23.7844H15.4454ZM15.4422 23.9246C15.3821 26.2349 14.9153 30.6468 13.4563 31.2129C13.3674 31.2463 13.3063 31.2796 13.2563 31.3074C13.3785 31.3685 13.6119 31.4463 13.9786 31.4519C14.5731 30.724 14.9454 29.2516 15.1676 27.7515C15.2065 27.057 15.2621 26.368 15.3788 25.7679C15.4291 25.0385 15.4474 24.3911 15.4422 23.9246ZM31.536 30.924C31.6971 30.9796 31.9082 31.0185 32.1361 31.0185C32.2472 31.0185 32.3527 31.0074 32.4472 30.9851C32.7806 30.6796 33.0917 30.2962 33.3917 29.8628C33.6798 29.2766 33.9724 28.5434 34.2153 27.9348L34.2863 27.757C34.3918 27.4959 34.4919 27.2459 34.5863 27.007C33.8418 28.6849 32.7361 30.4962 31.5304 30.924H31.536ZM24.5353 27.857C24.5519 28.9127 24.4408 29.8906 24.1408 30.4684C24.0685 30.6073 23.9908 30.7184 23.9074 30.8073C24.013 30.824 24.1297 30.8351 24.2408 30.8351H24.263C24.4741 30.2462 24.5519 29.4072 24.5408 28.5071C24.546 28.5511 24.5524 28.5952 24.5589 28.6398C24.5663 28.6908 24.5738 28.7426 24.5797 28.796L24.5925 28.8892C24.6481 29.293 24.7266 29.8637 24.7575 30.3629C24.8119 29.7859 24.6691 28.7772 24.5849 28.1826L24.5797 28.146C24.5742 28.0987 24.5672 28.0501 24.5603 28.0015C24.5533 27.9529 24.5464 27.9043 24.5408 27.857H24.5353ZM15.4288 22.7176C15.4399 22.8065 15.4454 22.9343 15.451 23.0788C15.6621 21.862 17.4679 18.845 18.8124 16.9059L18.9124 16.7614V16.5892C18.9124 16.5892 18.9124 16.4059 18.8791 16.1614L18.8124 16.2558C17.3456 18.3672 15.3232 21.762 15.4288 22.7176ZM60.2223 28.5682V28.5905C60.1612 29.3628 60.339 29.9239 60.5057 30.3351C60.589 30.2906 60.6612 30.2406 60.7112 30.1906C60.689 30.1184 60.639 29.9962 60.5946 29.8961L60.5884 29.8818C60.4555 29.5717 60.2715 29.1427 60.2223 28.5682ZM41.3703 20.9619C40.6647 20.134 38.02 13.1222 37.7589 10.1496C37.5533 7.82162 36.6976 5.49915 31.8916 4.29903L31.6582 4.23792L31.5415 4.02678C30.6137 2.33772 29.7191 1.86545 28.8524 1.40985C28.5301 1.24316 28.2023 1.07091 27.8856 0.843112C27.8758 0.835772 27.8671 0.830587 27.8604 0.826609C27.8519 0.821555 27.8467 0.818448 27.8467 0.815338C27.6967 0.876456 27.3967 1.33761 27.2355 1.58763L27.229 1.59772C26.8195 2.22862 26.3592 2.93779 25.5965 2.93779C25.5298 2.93779 25.4631 2.93223 25.3909 2.92112C25.2798 2.89889 25.0298 2.86555 24.6464 2.86555C23.8019 2.86555 20.8849 3.06001 18.7847 5.59916C17.1901 7.52714 15.1176 8.67727 13.2507 8.67727C11.8061 8.67727 10.5671 8.01608 9.66705 6.76039C8.73917 5.46581 8.278 4.93798 7.97242 4.5935C7.58349 4.14901 7.4057 3.93233 6.98899 3.12669C6.20557 1.60431 5.84999 1.58763 5.83332 1.58763C5.81665 1.58763 5.76664 1.6043 5.69441 1.67653C4.46384 2.85217 3.21698 3.28365 2.21161 3.63156L2.17738 3.64341C1.04392 4.03234 0.666106 4.21013 0.58832 4.80464V4.8491L0.571652 4.89354C0.549428 4.96021 0.571645 5.03244 0.677212 5.16578C0.843896 4.79352 1.26061 4.61573 2.18293 4.29903C3.19414 3.95455 4.44983 3.52117 5.69996 2.33215C5.77774 2.25992 5.82219 2.24327 5.83886 2.24327C5.85553 2.24327 6.21113 2.25993 6.99455 3.78231C7.41126 4.59351 7.58349 4.80463 7.97798 5.24912C8.28357 5.5936 8.74472 6.12145 9.67259 7.41603C10.5727 8.67172 11.8117 9.33289 13.2563 9.33289C15.1232 9.33289 17.1956 8.18278 18.7902 6.2548C20.8904 3.71565 23.8074 3.52117 24.6519 3.52117C25.0353 3.52117 25.2853 3.55451 25.3965 3.57674C25.4631 3.58785 25.5354 3.59341 25.602 3.59341C26.3647 3.59341 26.8251 2.88422 27.2346 2.25331L27.2411 2.24327C27.4022 1.99324 27.7023 1.53208 27.8523 1.47096C27.8523 1.47096 27.8689 1.48206 27.8912 1.49873C28.2079 1.72653 28.5357 1.89878 28.8579 2.06547L28.8654 2.06941C29.7298 2.52377 30.6219 2.99267 31.5471 4.6824L31.6638 4.89354L31.8971 4.95465C36.7032 6.15477 37.5533 8.47724 37.7644 10.8053C38.0255 13.7833 40.6703 20.7896 41.3759 21.6175C41.537 21.8786 41.8648 23.3399 42.1482 29.9017C42.1538 29.8962 42.1704 29.8906 42.176 29.885V29.7795C41.8815 22.7676 41.5426 21.2397 41.3759 20.9674L41.3703 20.9619ZM94.8482 28.5738C94.4592 27.2181 94.2536 26.0402 94.2259 24.9734C94.2147 24.4456 94.2148 23.9177 94.2148 23.3955C94.2036 24.1344 94.2036 24.879 94.2259 25.629C94.2536 26.6958 94.4537 27.8737 94.8482 29.2294C94.9839 29.7019 95.2948 30.2115 95.6253 30.7531L95.6482 30.7907C96.0205 31.3963 96.4205 32.0575 96.5539 32.6242C96.7595 31.9575 96.1761 30.9963 95.6482 30.1406L95.6253 30.103C95.2948 29.5614 94.9839 29.0518 94.8482 28.5793V28.5738ZM74.7294 16.7337C74.7072 18.6061 74.8072 20.334 75.2739 21.5619C75.485 22.1176 75.5906 22.5398 75.635 22.8899C75.7017 22.4454 75.635 21.8731 75.2739 20.9119C74.8627 19.8284 74.7349 18.3561 74.7294 16.7337ZM72.6458 31.5074C72.6458 31.5074 72.5958 31.5185 72.5792 31.5241C72.5958 31.563 72.6236 31.613 72.668 31.6852C72.6766 31.6852 72.6869 31.6869 72.6995 31.6889C72.7194 31.6922 72.7451 31.6963 72.7792 31.6963C73.1125 31.6963 73.4959 31.5185 73.6682 31.3407C73.6848 31.313 73.7001 31.2852 73.7154 31.2574L73.7224 31.2447C73.7279 31.2347 73.7334 31.2247 73.7391 31.2147C73.7467 31.2011 73.7545 31.1876 73.7626 31.1741C73.7626 31.0018 73.796 30.7184 73.846 30.374C73.5793 30.9407 73.2014 31.3907 72.6514 31.5074H72.6458ZM35.6253 24.2844C35.742 23.5121 35.8975 22.4676 35.8587 21.4453C35.8316 22.2244 35.7202 22.9825 35.6323 23.581L35.6253 23.6288C35.6211 23.6572 35.617 23.685 35.6128 23.7124L35.602 23.7838C35.5827 23.9106 35.565 24.0268 35.5531 24.1344C35.4975 24.5456 35.253 25.3846 34.8752 26.3402C35.0752 25.8791 35.2753 25.4846 35.4753 25.179C35.5142 25.0234 35.5364 24.8956 35.5531 24.7901C35.5627 24.7248 35.5724 24.6553 35.5825 24.5826C35.5957 24.4881 35.6096 24.388 35.6253 24.2844ZM24.5019 22.512C24.613 22.7009 24.6631 22.9621 24.6853 23.2621C24.7131 22.6843 24.6853 22.1787 24.5019 21.8564C24.0908 21.1341 23.1129 18.1505 22.9629 16.6114C22.7629 17.706 24.0185 21.662 24.5019 22.512ZM41.8482 27.7459C41.8426 29.2239 41.7648 29.4572 41.1925 30.1628C41.186 30.1727 41.1794 30.1806 41.1728 30.1889C41.1683 30.1946 41.1637 30.2005 41.1592 30.2073C41.337 30.1962 41.5037 30.1573 41.6593 30.1128C41.8482 29.6683 41.8537 29.1183 41.8482 27.7459Z" fill="white"/>
<path d="M38.1201 9.47227C35.9309 9.47227 33.9863 8.22771 31.9916 6.9498L31.436 6.5942L31.5638 6.31639L32.1194 6.67199C36.3532 9.38894 40.0092 11.7336 46.2932 3.35498L46.4987 3.56055C43.1595 8.01658 40.4925 9.47784 38.1201 9.47784V9.47227Z" fill="white"/>
</svg>
