<svg width="269" height="36" viewBox="0 0 269 36" fill="none" xmlns="http://www.w3.org/2000/svg">
<path d="M218.094 31.3022C218.561 30.8855 219.161 30.9578 219.4 30.1244C219.639 29.2909 220.411 25.8295 220.056 24.446C219.7 23.0625 219.761 22.3013 219.817 21.329C219.878 20.3567 219.106 15.4395 218.75 15.2339C218.394 15.0283 217.683 13.9893 217.561 13.7782C215.661 14.4727 210.021 16.5507 207.765 7.33864C206.46 6.78302 205.926 5.95516 205.215 6.16074C204.504 6.36632 204.087 7.06083 203.732 6.29964C203.376 5.53845 203.615 4.36056 204.743 4.01608C205.871 3.6716 206.704 3.11597 207.354 2.69926C208.01 2.28255 208.777 2.49369 209.138 2.21588C209.493 1.93807 209.671 2.4937 209.91 3.59937C210.149 4.70504 211.694 9.62776 214.183 9.62776C216.672 9.62776 218.161 4.7106 220.478 4.01608C222.795 3.32156 222.2 -0.30104 225.762 0.0212157C229.323 0.343471 230.035 2.28256 231.462 3.18266C232.885 4.08275 236.53 5.95517 236.518 9.62222C236.507 13.2948 235.852 18.212 236.802 20.7012C237.752 23.1959 236.863 23.5403 236.563 24.7849C236.268 26.0295 235.318 30.2855 235.318 31.1578C235.318 32.0301 233.596 32.5524 233.24 32.0301C232.885 31.5078 232.885 31.0911 233.535 30.9522C234.185 30.8133 234.546 29.7743 234.779 28.7353C235.018 27.6963 235.252 22.918 235.135 21.8068C235.018 20.7011 232.524 28.7464 232.346 29.7799C232.168 30.8133 231.874 31.2245 230.862 31.1578C229.851 31.0911 229.618 29.9799 230.268 29.7743C230.923 29.5687 231.574 28.4575 232.051 26.3795C232.524 24.3015 232.824 20.6289 232.707 19.7288C232.59 18.8287 230.746 14.7394 231.401 12.8725C228.257 15.0172 227.84 15.9173 221.667 15.5062C221.428 17.862 221.428 18.9009 221.606 20.0788C221.784 21.2568 221.9 26.5184 221.784 27.9741C221.667 29.4298 222.556 29.9799 222.2 30.4688C221.845 30.9578 220.956 31.0911 220.778 31.1633C221.072 31.719 216.8 32.4802 218.105 31.3022H218.094Z" fill="white"/>
<path d="M203.726 29.9021C203.643 27.8241 203.387 21.2845 202.793 20.59C202.198 19.8955 199.565 12.9615 199.309 10.0889C199.054 7.21642 197.781 4.9384 193.025 3.74939C191.664 1.27135 190.308 1.17134 189.203 0.382369C188.097 -0.412158 187.591 2.56038 186.486 2.36591C185.38 2.16589 181.813 2.26589 179.351 5.23843C176.89 8.21096 173.184 9.31664 171.112 6.42745C169.123 3.65494 169.245 4.34944 168.478 2.8604C167.711 1.37691 167.017 0.587944 166.306 1.26579C163.872 3.5827 161.288 2.83818 161.033 4.72171C160.833 5.38289 161.6 5.74403 161.855 6.33298C162.111 6.92749 164.928 6.47188 165.45 6.98861C168.517 10.0167 168.3 13.7004 174.329 13.9449C176.79 14.0449 177.301 12.667 178.324 13.5615C179.34 14.4505 179.34 15.9395 179.34 15.9395C179.34 15.9395 175.69 21.1901 175.857 22.7736C176.029 24.3571 175.518 30.2021 174.245 30.6966C172.973 31.1911 173.734 32.1801 175.434 31.9857C177.135 31.7912 176.368 27.4296 177.046 25.3461C177.724 23.2681 181.035 17.6175 182.313 16.8285C183.841 21.9791 183.585 22.2791 184.269 23.6626C184.947 25.0516 185.458 30.4022 184.185 30.5966C182.913 30.7967 184.863 31.6856 185.797 31.2912C186.73 30.8967 186.136 28.6186 185.969 26.9296C185.797 25.2461 186.647 22.768 185.969 21.579C185.291 20.39 184.185 16.0284 184.524 16.0284C184.863 16.0284 193.525 13.8504 194.459 12.3614C194.881 15.0339 194.542 17.2175 195.648 18.6009C196.753 19.99 196.159 22.7625 195.987 24.0515C195.814 25.3405 194.031 29.7965 192.336 30.391C190.636 30.9855 192.847 31.9746 193.947 31.3801C195.053 30.7855 196.242 26.0295 197.176 25.1405C198.109 24.2515 197.598 18.0064 198.281 17.3119C200.065 20.0844 202.271 22.7625 202.271 26.1295C202.271 29.4965 202.354 29.002 201.504 30.091C200.654 31.18 203.748 30.78 203.71 29.891L203.726 29.9021Z" fill="white"/>
<path d="M255.093 35.4364C253.57 36.0087 251.842 35.9864 250.492 35.2753C250.909 33.8418 250.837 33.9362 250.359 32.4027C249.837 30.7248 248.464 28.819 248.659 26.9466C249.009 23.5518 250.159 20.2626 250.548 16.8178C250.653 15.8621 250.614 14.9398 250.842 14.023C251.092 13.0007 251.642 12.2673 251.498 11.1339C251.353 9.98374 250.531 9.02808 251.448 7.97242C252.487 6.77785 253.948 7.7335 254.27 9.16142C254.437 9.89483 253.715 10.5838 253.904 11.2728C254.259 12.5618 255.515 12.6785 255.676 14.3064C256.037 17.8901 255.693 21.3794 255.782 24.9575C255.809 26.1187 256.065 27.3133 256.382 28.419C256.743 29.6636 258.793 31.6582 257.976 33.0695C257.326 34.1974 256.271 34.9975 255.098 35.442L255.093 35.4364Z" fill="white"/>
<path d="M267.744 35.225C267.105 36.1084 264.538 35.8639 263.666 35.8917C261.038 35.9862 259.638 35.6083 260.26 32.0857C260.771 29.1743 262.016 26.5185 262.744 23.696C263.549 20.5568 263.71 17.3787 264.138 14.1561C264.283 13.056 264.444 12.5726 264.355 11.4614C264.255 10.2446 263.255 9.12779 264.266 7.96656C265.305 6.77199 266.766 7.72765 267.088 9.15558C267.255 9.88899 266.533 10.5779 266.722 11.2669C267.077 12.5559 268.333 12.6726 268.494 14.3005C268.944 18.8232 268.75 22.9292 268.394 27.4241C268.244 29.3077 268.839 33.6915 267.75 35.225H267.744Z" fill="white"/>
<path fill-rule="evenodd" clip-rule="evenodd" d="M231.918 13.7116C231.868 13.8561 231.84 14.0172 231.824 14.195C231.79 13.7561 231.812 13.3616 231.918 13.0616L232.174 12.3226L232.474 12.117L231.918 13.7116ZM219.933 30.9245C220.095 30.3522 220.772 27.5186 220.689 25.724C220.622 27.4853 220.078 29.7688 219.933 30.2744C219.772 30.8301 219.478 31.1134 219.189 31.2968C219.428 31.2579 219.656 31.2023 219.85 31.1412L219.853 31.1338C219.861 31.1124 219.87 31.0919 219.879 31.0714C219.899 31.0257 219.919 30.9801 219.933 30.9245ZM260.799 32.8358C261.093 31.169 261.649 29.541 262.188 27.9687L262.226 27.8561C262.598 26.7632 262.981 25.6346 263.277 24.4905C263.86 22.2125 264.116 19.8845 264.36 17.6342L264.369 17.5594C264.466 16.6728 264.564 15.781 264.683 14.884C264.709 14.6773 264.739 14.4916 264.767 14.3185L264.767 14.3132L264.778 14.2468L264.788 14.1839C264.883 13.5949 264.955 13.1115 264.921 12.3892C264.905 12.7781 264.852 13.1197 264.793 13.5007L264.788 13.5338C264.761 13.7031 264.735 13.8831 264.705 14.0823L264.683 14.2339C264.56 15.1562 264.46 16.0674 264.36 16.9842C264.116 19.2344 263.86 21.5624 263.277 23.8405C262.971 25.0239 262.577 26.1907 262.188 27.3186C261.649 28.891 261.099 30.5189 260.799 32.1858C260.677 32.8692 260.638 33.4248 260.671 33.8637C260.688 33.5581 260.732 33.2192 260.799 32.8358ZM253.354 11.328C253.309 11.5614 253.298 11.8059 253.365 12.067C253.559 12.7761 253.968 13.1979 254.328 13.5694L254.331 13.5727L254.338 13.579C254.735 13.9872 255.049 14.3097 255.12 15.0117C255.226 16.0785 255.27 17.1453 255.282 18.2121C255.282 16.9342 255.248 15.6452 255.12 14.3617C255.048 13.6505 254.731 13.3282 254.331 12.9226L254.317 12.9077C253.959 12.5392 253.557 12.1241 253.365 11.4169C253.362 11.4057 253.362 11.3945 253.362 11.3829C253.361 11.3658 253.36 11.3479 253.354 11.328ZM264.677 8.98334C264.877 8.74998 265.094 8.63331 265.321 8.63331C265.783 8.63331 266.266 9.11114 266.477 9.72787C266.533 9.56119 266.566 9.4056 266.538 9.27781C266.377 8.56107 265.833 7.98324 265.321 7.98324C265.094 7.98324 264.877 8.09992 264.677 8.33328C264.36 8.69443 264.316 9.0278 264.405 9.46673C264.449 9.3056 264.533 9.14446 264.677 8.98334ZM266.16 11.328C266.116 11.5614 266.105 11.8059 266.172 12.067C266.365 12.776 266.775 13.1979 267.135 13.5693L267.138 13.5727L267.144 13.579C267.542 13.9871 267.855 14.3097 267.927 15.0117C268.088 16.6064 268.166 18.1399 268.183 19.69C268.183 17.9176 268.105 16.1785 267.927 14.3617C267.855 13.6505 267.538 13.3282 267.138 12.9226L267.124 12.9077C266.766 12.5392 266.363 12.1241 266.172 11.4169C266.169 11.4057 266.169 11.3945 266.168 11.3829C266.168 11.3658 266.167 11.3479 266.16 11.328ZM233.268 20.6679C233.229 22.2347 232.951 24.9017 232.579 26.513C232.068 28.741 231.346 30.0189 230.451 30.2856C230.451 30.3022 230.451 30.3633 230.501 30.43C230.546 30.4911 230.657 30.6023 230.896 30.6189H231.007C231.318 30.3578 231.601 29.9522 231.862 29.4021C232.018 28.7632 232.385 27.5186 232.763 26.3018C233.096 24.4127 233.318 21.8236 233.279 20.6679H233.268ZM204.226 5.76635C204.348 5.48854 204.576 5.29407 204.898 5.19406C206.032 4.84403 206.865 4.31619 207.532 3.88837L207.649 3.81614C207.893 3.66056 208.188 3.62723 208.499 3.59389L208.506 3.59316C208.72 3.57117 208.94 3.54866 209.143 3.47722C209.205 3.67168 209.277 3.96616 209.366 4.36064C209.377 4.42732 210.899 10.828 214.183 10.828C215.803 10.828 216.95 9.27005 218.062 7.75974L218.078 7.73877C218.9 6.61643 219.75 5.46076 220.633 5.19406C221.811 4.84403 222.361 3.88837 222.845 3.04384C223.434 2.01596 223.906 1.20475 225.323 1.20475C225.445 1.20475 225.573 1.2103 225.706 1.22141C228.062 1.4381 229.023 2.37154 229.951 3.27719L229.986 3.31136C230.362 3.67675 230.721 4.02488 231.162 4.30508C231.222 4.34111 231.283 4.37953 231.348 4.41978C231.422 4.46642 231.501 4.51552 231.585 4.56622C233.085 5.47742 235.841 7.16648 235.946 10.0835C235.946 10.0084 235.949 9.93066 235.952 9.85288C235.955 9.7751 235.957 9.69731 235.957 9.6223C235.968 6.59411 233.133 4.86215 231.601 3.92632L231.585 3.91614C231.429 3.82169 231.285 3.73279 231.162 3.655C230.712 3.37164 230.34 3.01051 229.951 2.62713L229.95 2.62627C229.023 1.72089 228.067 0.787976 225.706 0.571355C225.573 0.560243 225.445 0.554688 225.323 0.554688C223.906 0.554688 223.434 1.36588 222.845 2.39377C222.361 3.2383 221.806 4.19395 220.633 4.54399C219.75 4.81068 218.9 5.96637 218.078 7.08871C216.966 8.60553 215.811 10.1779 214.183 10.1779C210.899 10.1779 209.377 3.77724 209.366 3.71057C209.282 3.31608 209.205 3.01605 209.143 2.82714C208.94 2.89858 208.72 2.9211 208.506 2.94309L208.499 2.94382L208.478 2.94607C208.175 2.97848 207.893 3.00858 207.649 3.16606L207.532 3.23829C206.865 3.66612 206.032 4.19395 204.898 4.54399C204.576 4.644 204.354 4.83291 204.226 5.11627C204.115 5.36074 204.104 5.65522 204.176 5.91635C204.182 5.89969 204.187 5.88302 204.192 5.86636C204.202 5.83302 204.211 5.79968 204.226 5.76635ZM250.148 22.5959C250.52 20.9568 250.903 19.2566 251.098 17.5287C251.137 17.1786 251.159 16.8342 251.176 16.4952C251.209 15.9063 251.242 15.3451 251.376 14.8062C251.441 14.5329 251.535 14.278 251.631 14.0164L251.659 13.9394C251.892 13.3171 252.131 12.6726 252.053 11.8225C252.003 12.367 251.831 12.8337 251.659 13.2838C251.548 13.5727 251.448 13.8505 251.376 14.1506C251.242 14.6895 251.209 15.2507 251.176 15.8396L251.169 15.9448L251.162 16.0568C251.145 16.3254 251.128 16.5975 251.098 16.8731C250.903 18.5955 250.52 20.2956 250.148 21.9402L250.132 22.0097C249.765 23.644 249.384 25.3365 249.209 27.0019C249.186 27.2075 249.192 27.413 249.209 27.6186C249.386 25.9407 249.77 24.2405 250.142 22.5903L250.148 22.5959ZM251.865 8.9889C252.065 8.75554 252.281 8.63886 252.509 8.63886C252.97 8.63886 253.454 9.11669 253.665 9.73342C253.72 9.56673 253.754 9.41116 253.726 9.28337C253.565 8.56663 253.02 7.9888 252.509 7.9888C252.281 7.9888 252.065 8.10548 251.865 8.33884C251.564 8.68332 251.531 8.9889 251.62 9.41117C251.664 9.27226 251.737 9.13336 251.865 8.99446V8.9889ZM176.446 23.7849C176.445 23.8307 176.444 23.8774 176.442 23.9251C176.442 23.8763 176.441 23.8296 176.44 23.7849H176.446ZM176.442 23.9251C176.382 26.2354 175.915 30.6473 174.456 31.2134C174.368 31.2468 174.306 31.2801 174.256 31.3079C174.379 31.369 174.612 31.4468 174.979 31.4523C175.573 30.7245 175.945 29.2521 176.168 27.752C176.207 27.0574 176.262 26.3685 176.379 25.7684C176.429 25.039 176.448 24.3915 176.442 23.9251ZM192.536 30.9245C192.697 30.9801 192.908 31.019 193.136 31.019C193.247 31.019 193.353 31.0079 193.447 30.9856C193.781 30.68 194.092 30.2967 194.392 29.8633C194.68 29.2771 194.972 28.5439 195.215 27.9353L195.286 27.7575C195.392 27.4964 195.492 27.2464 195.586 27.0074C194.842 28.6854 193.736 30.4967 192.531 30.9245H192.536ZM185.535 27.8575C185.552 28.9132 185.441 29.8911 185.141 30.4689C185.069 30.6078 184.991 30.7189 184.908 30.8078C185.013 30.8245 185.13 30.8356 185.241 30.8356H185.263C185.474 30.2467 185.552 29.4077 185.541 28.5076C185.546 28.5516 185.553 28.5957 185.559 28.6402C185.566 28.6913 185.574 28.7431 185.58 28.7965L185.593 28.8897C185.648 29.2935 185.727 29.8642 185.758 30.3633C185.812 29.7864 185.669 28.7777 185.585 28.1831L185.58 28.1465C185.574 28.0992 185.567 28.0506 185.56 28.002C185.553 27.9534 185.546 27.9048 185.541 27.8575H185.535ZM176.429 22.7181C176.44 22.807 176.446 22.9348 176.451 23.0793C176.662 21.8625 178.468 18.8455 179.813 16.9064L179.913 16.7619V16.5897C179.913 16.5897 179.913 16.4063 179.879 16.1619L179.813 16.2563C178.346 18.3677 176.323 21.7624 176.429 22.7181ZM221.222 28.5687V28.5909C221.161 29.3632 221.339 29.9244 221.506 30.3356C221.589 30.2911 221.661 30.2411 221.711 30.1911C221.689 30.1189 221.639 29.9966 221.595 29.8966L221.589 29.8823C221.456 29.5722 221.272 29.1432 221.222 28.5687ZM202.37 20.9624C201.665 20.1345 199.02 13.1227 198.759 10.1501C198.553 7.82211 197.698 5.49964 192.892 4.29952L192.658 4.23841L192.542 4.02727C191.614 2.33821 190.719 1.86594 189.853 1.41034C189.53 1.24365 189.202 1.0714 188.886 0.8436C188.876 0.83626 188.867 0.831076 188.861 0.827098C188.852 0.822043 188.847 0.818936 188.847 0.815827C188.697 0.876944 188.397 1.33809 188.236 1.58812L188.229 1.59821C187.82 2.2291 187.359 2.93827 186.597 2.93827C186.53 2.93827 186.463 2.93272 186.391 2.92161C186.28 2.89938 186.03 2.86604 185.647 2.86604C184.802 2.86604 181.885 3.0605 179.785 5.59965C178.19 7.52763 176.118 8.67775 174.251 8.67775C172.806 8.67775 171.567 8.01657 170.667 6.76088C169.739 5.4663 169.278 4.93847 168.973 4.59399C168.584 4.1495 168.406 3.93282 167.989 3.12718C167.206 1.6048 166.85 1.58812 166.833 1.58812C166.817 1.58812 166.767 1.60479 166.695 1.67702C165.464 2.85265 164.217 3.28414 163.212 3.63205L163.177 3.6439C162.044 4.03283 161.666 4.21062 161.588 4.80513V4.84959L161.572 4.89403C161.55 4.9607 161.572 5.03293 161.677 5.16627C161.844 4.79401 162.261 4.61622 163.183 4.29952C164.194 3.95504 165.45 3.52165 166.7 2.33264C166.778 2.26041 166.822 2.24376 166.839 2.24376C166.856 2.24376 167.211 2.26042 167.995 3.7828C168.411 4.594 168.584 4.80512 168.978 5.24961C169.284 5.59409 169.745 6.12194 170.673 7.41652C171.573 8.6722 172.812 9.33337 174.256 9.33337C176.123 9.33337 178.196 8.18327 179.79 6.25529C181.891 3.71613 184.808 3.52166 185.652 3.52166C186.035 3.52166 186.285 3.555 186.397 3.57723C186.463 3.58834 186.535 3.59389 186.602 3.59389C187.365 3.59389 187.825 2.8847 188.235 2.2538L188.241 2.24376C188.402 1.99373 188.702 1.53256 188.852 1.47145C188.852 1.47145 188.869 1.48255 188.891 1.49922C189.208 1.72702 189.536 1.89927 189.858 2.06596L189.866 2.0699C190.73 2.52426 191.622 2.99316 192.547 4.68289L192.664 4.89403L192.897 4.95514C197.703 6.15526 198.553 8.47773 198.765 10.8057C199.026 13.7838 201.67 20.7901 202.376 21.618C202.537 21.8791 202.865 23.3404 203.148 29.9022C203.154 29.8966 203.171 29.8911 203.176 29.8855V29.78C202.882 22.7681 202.543 21.2402 202.376 20.9679L202.37 20.9624ZM255.848 28.5743C255.459 27.2186 255.254 26.0407 255.226 24.9739C255.215 24.4461 255.215 23.9182 255.215 23.396C255.204 24.1349 255.204 24.8794 255.226 25.6295C255.254 26.6963 255.454 27.8742 255.848 29.2299C255.984 29.7024 256.295 30.212 256.625 30.7536L256.648 30.7912C257.021 31.3968 257.421 32.058 257.554 32.6247C257.76 31.958 257.176 30.9968 256.648 30.1411L256.625 30.1035C256.295 29.5619 255.984 29.0523 255.848 28.5798V28.5743ZM235.729 16.7341C235.707 18.6066 235.807 20.3345 236.274 21.5624C236.485 22.118 236.591 22.5403 236.635 22.8903C236.702 22.4459 236.635 21.8736 236.274 20.9124C235.863 19.8289 235.735 18.3565 235.729 16.7341ZM233.646 31.5079C233.646 31.5079 233.596 31.519 233.579 31.5246C233.596 31.5635 233.624 31.6135 233.668 31.6857C233.677 31.6857 233.687 31.6874 233.7 31.6894C233.72 31.6927 233.745 31.6968 233.779 31.6968C234.113 31.6968 234.496 31.519 234.668 31.3412C234.685 31.3135 234.7 31.2857 234.715 31.2579L234.722 31.2452C234.728 31.2352 234.734 31.2252 234.739 31.2152C234.747 31.2016 234.755 31.1881 234.763 31.1745C234.763 31.0023 234.796 30.7189 234.846 30.3745C234.579 30.9412 234.202 31.3912 233.651 31.5079H233.646ZM196.625 24.2849C196.742 23.5126 196.898 22.4681 196.859 21.4458C196.832 22.2249 196.72 22.983 196.632 23.5815L196.625 23.6293C196.621 23.6577 196.617 23.6855 196.613 23.7129L196.602 23.7843C196.583 23.9111 196.565 24.0273 196.553 24.1349C196.498 24.5461 196.253 25.3851 195.875 26.3407C196.075 25.8796 196.275 25.4851 196.475 25.1795C196.514 25.0239 196.537 24.8961 196.553 24.7905C196.563 24.7253 196.573 24.6558 196.583 24.5831C196.596 24.4886 196.61 24.3885 196.625 24.2849ZM185.502 22.5125C185.613 22.7014 185.663 22.9626 185.685 23.2626C185.713 22.6848 185.685 22.1792 185.502 21.8569C185.091 21.1346 184.113 18.151 183.963 16.6119C183.763 17.7065 185.019 21.6624 185.502 22.5125ZM202.848 27.7464C202.843 29.2243 202.765 29.4577 202.193 30.1633C202.186 30.1732 202.179 30.1811 202.173 30.1894C202.168 30.1951 202.164 30.201 202.159 30.2078C202.337 30.1967 202.504 30.1578 202.659 30.1133C202.848 29.6688 202.854 29.1188 202.848 27.7464Z" fill="white"/>
<path d="M199.12 9.47276C196.931 9.47276 194.986 8.2282 192.992 6.95029L192.436 6.59469L192.564 6.31688L193.12 6.67248C197.353 9.38943 201.009 11.7341 207.293 3.35547L207.499 3.56104C204.16 8.01706 201.493 9.47832 199.12 9.47832V9.47276Z" fill="white"/>
<path d="M57.0942 31.3018C57.5609 30.8851 58.161 30.9573 58.3999 30.1239C58.6388 29.2904 59.4111 25.829 59.0555 24.4455C58.6999 23.062 58.7611 22.3008 58.8166 21.3285C58.8778 20.3562 58.1055 15.439 57.7499 15.2334C57.3943 15.0278 56.6831 13.9888 56.5608 13.7777C54.6606 14.4722 49.0212 16.5502 46.7654 7.33815C45.4597 6.78253 44.9263 5.95467 44.2151 6.16025C43.5039 6.36583 43.0872 7.06034 42.7316 6.29915C42.376 5.53796 42.6149 4.36007 43.7428 4.01559C44.8707 3.67111 45.7042 3.11548 46.3542 2.69877C47.0099 2.28206 47.7766 2.4932 48.1377 2.21539C48.4933 1.93758 48.6711 2.49321 48.9101 3.59888C49.149 4.70455 50.6936 9.62727 53.1827 9.62727C55.6719 9.62727 57.1609 4.71011 59.4778 4.01559C61.7947 3.32107 61.2002 -0.301528 64.7617 0.0207274C68.3232 0.342983 69.0344 2.28208 70.4623 3.18217C71.8847 4.08226 75.5295 5.95468 75.5184 9.62173C75.5073 13.2943 74.8516 18.2115 75.8017 20.7007C76.7518 23.1954 75.8629 23.5398 75.5628 24.7844C75.2684 26.029 74.3182 30.285 74.3182 31.1573C74.3182 32.0296 72.5958 32.5519 72.2403 32.0296C71.8847 31.5073 71.8847 31.0906 72.5347 30.9517C73.1848 30.8128 73.5459 29.7738 73.7793 28.7348C74.0182 27.6958 74.2516 22.9176 74.1349 21.8063C74.0182 20.7007 71.5235 28.7459 71.3457 29.7794C71.1679 30.8128 70.8734 31.224 69.8622 31.1573C68.851 31.0906 68.6177 29.9794 69.2677 29.7738C69.9233 29.5682 70.5734 28.457 71.0513 26.379C71.5235 24.301 71.8236 20.6284 71.7069 19.7283C71.5902 18.8282 69.7456 14.7389 70.4012 12.8721C67.2564 15.0167 66.8397 15.9168 60.6668 15.5057C60.4279 17.8615 60.4279 18.9005 60.6057 20.0784C60.7835 21.2563 60.9002 26.5179 60.7835 27.9736C60.6668 29.4293 61.5558 29.9794 61.2002 30.4683C60.8446 30.9573 59.9556 31.0906 59.7778 31.1629C60.0723 31.7185 55.7997 32.4797 57.1054 31.3018H57.0942Z" fill="white"/>
<path d="M42.7261 29.9016C42.6428 27.8236 42.3872 21.2841 41.7927 20.5895C41.1982 19.895 38.5646 12.961 38.309 10.0885C38.0534 7.21593 36.7811 4.93791 32.025 3.7489C30.6638 1.27086 29.3081 1.17085 28.2024 0.381881C27.0967 -0.412646 26.5911 2.55989 25.4854 2.36543C24.3798 2.1654 20.8127 2.26541 18.3514 5.23794C15.89 8.21047 12.1841 9.31615 10.1116 6.42696C8.12252 3.65445 8.24475 4.34896 7.478 2.85991C6.71125 1.37642 6.01674 0.587456 5.30555 1.2653C2.87196 3.58221 0.288366 2.83769 0.0327838 4.72122C-0.167237 5.3824 0.599507 5.74355 0.855089 6.3325C1.11067 6.927 3.92763 6.4714 4.44991 6.98812C7.5169 10.0162 7.3002 13.6999 13.3286 13.9444C15.79 14.0444 16.3011 12.6665 17.3235 13.561C18.3402 14.45 18.3402 15.9391 18.3402 15.9391C18.3402 15.9391 14.6899 21.1896 14.8565 22.7731C15.0288 24.3566 14.5176 30.2017 13.2453 30.6962C11.9729 31.1906 12.7341 32.1796 14.4343 31.9852C16.1345 31.7907 15.3677 27.4291 16.0456 25.3456C16.7234 23.2676 20.0349 17.617 21.3128 16.828C22.8407 21.9786 22.5851 22.2786 23.2685 23.6621C23.9464 25.0511 24.4576 30.4017 23.1852 30.5961C21.9128 30.7962 23.863 31.6851 24.7965 31.2907C25.7299 30.8962 25.1354 28.6182 24.9687 26.9291C24.7965 25.2456 25.6466 22.7675 24.9687 21.5785C24.2909 20.3895 23.1852 16.028 23.5241 16.028C23.863 16.028 32.5251 13.85 33.4585 12.3609C33.8808 15.0334 33.5418 17.217 34.6475 18.6005C35.7532 19.9895 35.1587 22.762 34.9864 24.051C34.8142 25.34 33.0307 29.796 31.336 30.3906C29.6359 30.9851 31.8472 31.9741 32.9473 31.3796C34.053 30.7851 35.242 26.029 36.1754 25.14C37.1089 24.251 36.5977 18.0059 37.2811 17.3114C39.0646 20.0839 41.2704 22.762 41.2704 26.129C41.2704 29.496 41.3538 29.0015 40.5037 30.0905C39.6536 31.1795 42.7484 30.7795 42.7095 29.8905L42.7261 29.9016Z" fill="white"/>
<path d="M94.0926 35.4359C92.5703 36.0082 90.8423 35.986 89.4922 35.2748C89.9089 33.8413 89.8366 33.9358 89.3588 32.4023C88.8365 30.7243 87.4642 28.8185 87.6586 26.9461C88.0087 23.5513 89.1588 20.2621 89.5477 16.8173C89.6533 15.8616 89.6144 14.9393 89.8422 14.0226C90.0922 13.0002 90.6423 12.2668 90.4978 11.1334C90.3534 9.98325 89.531 9.0276 90.4478 7.97193C91.4868 6.77736 92.9481 7.73301 93.2703 9.16093C93.437 9.89434 92.7147 10.5833 92.9036 11.2723C93.2592 12.5613 94.5149 12.678 94.676 14.3059C95.0372 17.8896 94.6927 21.3789 94.7816 24.957C94.8094 26.1183 95.0649 27.3128 95.3816 28.4185C95.7428 29.6631 97.793 31.6577 96.9763 33.069C96.3262 34.1969 95.2705 34.997 94.0982 35.4415L94.0926 35.4359Z" fill="white"/>
<path fill-rule="evenodd" clip-rule="evenodd" d="M70.9179 13.7111C70.8679 13.8556 70.8401 14.0167 70.8234 14.1945C70.7901 13.7556 70.8123 13.3611 70.9179 13.0611L71.1735 12.3221L71.4735 12.1165L70.9179 13.7111ZM58.9333 30.924C59.0944 30.3518 59.7723 27.5181 59.6889 25.7235C59.6222 27.4848 59.0778 29.7684 58.9333 30.274C58.7722 30.8296 58.4777 31.1129 58.1888 31.2963C58.4277 31.2574 58.6555 31.2018 58.8499 31.1407L58.8528 31.1333C58.8613 31.1119 58.8701 31.0914 58.879 31.0709C58.8987 31.0253 58.9185 30.9796 58.9333 30.924ZM92.3534 11.3275C92.309 11.5609 92.2979 11.8054 92.3645 12.0665C92.5584 12.7756 92.9677 13.1974 93.3281 13.5689L93.3313 13.5722L93.3374 13.5785C93.7346 13.9867 94.0484 14.3092 94.1203 15.0113C94.2259 16.078 94.2703 17.1448 94.2814 18.2116C94.2814 16.9337 94.2481 15.6447 94.1203 14.3612C94.0481 13.65 93.7313 13.3278 93.3313 12.9222L93.3168 12.9073C92.9592 12.5387 92.5564 12.1236 92.3645 11.4164C92.3623 11.4052 92.3619 11.394 92.3614 11.3825C92.3608 11.3653 92.3601 11.3474 92.3534 11.3275ZM72.268 20.6674C72.2291 22.2342 71.9513 24.9012 71.579 26.5125C71.0679 28.7405 70.3456 30.0184 69.451 30.2851C69.451 30.3018 69.451 30.3629 69.5011 30.4295C69.5455 30.4906 69.6566 30.6018 69.8955 30.6184H70.0067C70.3178 30.3573 70.6012 29.9517 70.8623 29.4016C71.0179 28.7627 71.3846 27.5181 71.7624 26.3013C72.0958 24.4122 72.318 21.8231 72.2791 20.6674H72.268ZM43.2261 5.76586C43.3483 5.48805 43.5761 5.29359 43.8984 5.19358C45.0318 4.84354 45.8653 4.3157 46.532 3.88788L46.6487 3.81565C46.8931 3.66008 47.1876 3.62674 47.4988 3.59341L47.5059 3.59267C47.7203 3.57069 47.94 3.54817 48.1433 3.47673C48.2044 3.6712 48.2766 3.96567 48.3655 4.36016C48.3766 4.42683 49.899 10.8275 53.1827 10.8275C54.8031 10.8275 55.9501 9.26956 57.0621 7.75925L57.0775 7.73828C57.8998 6.61594 58.7499 5.46027 59.6334 5.19358C60.8113 4.84354 61.3613 3.88789 61.8447 3.04335C62.4337 2.01547 62.9059 1.20426 64.3227 1.20426C64.445 1.20426 64.5728 1.20981 64.7061 1.22093C67.0619 1.43761 68.0231 2.37105 68.951 3.2767L68.9862 3.31087C69.3621 3.67626 69.7204 4.02439 70.1622 4.30459C70.2214 4.34062 70.283 4.37904 70.3475 4.41929C70.4223 4.46593 70.501 4.51503 70.5845 4.56573C72.0846 5.47694 74.8405 7.166 74.9461 10.083C74.9461 10.008 74.9488 9.93018 74.9516 9.85239C74.9544 9.77461 74.9572 9.69682 74.9572 9.62182C74.9683 6.59362 72.1331 4.86166 70.6011 3.92583L70.5845 3.91565C70.4289 3.8212 70.2845 3.7323 70.1622 3.65452C69.7122 3.37115 69.3399 3.01002 68.951 2.62664L68.9501 2.62578C68.0225 1.7204 67.0667 0.787488 64.7061 0.570867C64.5728 0.559755 64.445 0.554199 64.3227 0.554199C62.9059 0.554199 62.4337 1.36539 61.8447 2.39328C61.3613 3.23781 60.8057 4.19346 59.6334 4.5435C58.7499 4.81019 57.8998 5.96588 57.0775 7.08822C55.9663 8.60504 54.8106 10.1774 53.1827 10.1774C49.899 10.1774 48.3766 3.77675 48.3655 3.71008C48.2822 3.31559 48.2044 3.01557 48.1433 2.82666C47.94 2.89809 47.7203 2.92061 47.5059 2.9426L47.4988 2.94333L47.4777 2.94559C47.1745 2.97799 46.893 3.00809 46.6487 3.16557L46.532 3.23781C45.8653 3.66563 45.0318 4.19346 43.8984 4.5435C43.5761 4.64351 43.3539 4.83242 43.2261 5.11578C43.115 5.36025 43.1039 5.65473 43.1761 5.91587C43.1816 5.8992 43.1866 5.88253 43.1915 5.86587C43.2014 5.83253 43.2113 5.7992 43.2261 5.76586ZM89.1475 22.5954C89.5198 20.9563 89.9032 19.2561 90.0976 17.5282C90.1365 17.1781 90.1588 16.8337 90.1754 16.4948C90.2088 15.9058 90.2421 15.3446 90.3755 14.8057C90.4412 14.5324 90.5347 14.2775 90.6306 14.0159L90.6588 13.9389C90.8922 13.3166 91.1311 12.6721 91.0533 11.822C91.0033 12.3665 90.831 12.8333 90.6588 13.2833C90.5477 13.5722 90.4477 13.85 90.3755 14.1501C90.2421 14.689 90.2088 15.2502 90.1754 15.8391L90.1687 15.9443L90.1617 16.0563C90.1451 16.3249 90.1283 16.597 90.0976 16.8726C89.9032 18.595 89.5198 20.2951 89.1475 21.9398L89.1319 22.0093C88.7644 23.6435 88.3839 25.336 88.2085 27.0014C88.1863 27.207 88.1919 27.4126 88.2085 27.6181C88.3863 25.9402 88.7697 24.24 89.142 22.5898L89.1475 22.5954ZM90.8644 8.98841C91.0644 8.75505 91.2811 8.63837 91.5089 8.63837C91.9701 8.63837 92.4534 9.1162 92.6646 9.73293C92.7201 9.56624 92.7535 9.41067 92.7257 9.28288C92.5646 8.56614 92.0201 7.98831 91.5089 7.98831C91.2811 7.98831 91.0644 8.10499 90.8644 8.33835C90.5644 8.68283 90.531 8.98841 90.6199 9.41068C90.6644 9.27178 90.7366 9.13287 90.8644 8.99397V8.98841ZM15.4454 23.7844C15.4445 23.8302 15.4435 23.8769 15.4422 23.9246C15.4417 23.8758 15.4409 23.8291 15.4399 23.7844H15.4454ZM15.4422 23.9246C15.3821 26.2349 14.9153 30.6468 13.4563 31.2129C13.3674 31.2463 13.3063 31.2796 13.2563 31.3074C13.3785 31.3685 13.6119 31.4463 13.9786 31.4519C14.5731 30.724 14.9454 29.2516 15.1676 27.7515C15.2065 27.057 15.2621 26.368 15.3788 25.7679C15.4291 25.0385 15.4474 24.3911 15.4422 23.9246ZM31.536 30.924C31.6971 30.9796 31.9082 31.0185 32.1361 31.0185C32.2472 31.0185 32.3527 31.0074 32.4472 30.9851C32.7806 30.6796 33.0917 30.2962 33.3917 29.8628C33.6798 29.2766 33.9724 28.5434 34.2153 27.9348L34.2863 27.757C34.3918 27.4959 34.4919 27.2459 34.5863 27.007C33.8418 28.6849 32.7361 30.4962 31.5304 30.924H31.536ZM24.5353 27.857C24.5519 28.9127 24.4408 29.8906 24.1408 30.4684C24.0685 30.6073 23.9908 30.7184 23.9074 30.8073C24.013 30.824 24.1297 30.8351 24.2408 30.8351H24.263C24.4741 30.2462 24.5519 29.4072 24.5408 28.5071C24.546 28.5511 24.5524 28.5952 24.5589 28.6398C24.5663 28.6908 24.5738 28.7426 24.5797 28.796L24.5925 28.8892C24.6481 29.293 24.7266 29.8637 24.7575 30.3629C24.8119 29.7859 24.6691 28.7772 24.5849 28.1826L24.5797 28.146C24.5742 28.0987 24.5672 28.0501 24.5603 28.0015C24.5533 27.9529 24.5464 27.9043 24.5408 27.857H24.5353ZM15.4288 22.7176C15.4399 22.8065 15.4454 22.9343 15.451 23.0788C15.6621 21.862 17.4679 18.845 18.8124 16.9059L18.9124 16.7614V16.5892C18.9124 16.5892 18.9124 16.4059 18.8791 16.1614L18.8124 16.2558C17.3456 18.3672 15.3232 21.762 15.4288 22.7176ZM60.2223 28.5682V28.5905C60.1612 29.3628 60.339 29.9239 60.5057 30.3351C60.589 30.2906 60.6612 30.2406 60.7112 30.1906C60.689 30.1184 60.639 29.9962 60.5946 29.8961L60.5884 29.8818C60.4555 29.5717 60.2715 29.1427 60.2223 28.5682ZM41.3703 20.9619C40.6647 20.134 38.02 13.1222 37.7589 10.1496C37.5533 7.82162 36.6976 5.49915 31.8916 4.29903L31.6582 4.23792L31.5415 4.02678C30.6137 2.33772 29.7191 1.86545 28.8524 1.40985C28.5301 1.24316 28.2023 1.07091 27.8856 0.843112C27.8758 0.835772 27.8671 0.830587 27.8604 0.826609C27.8519 0.821555 27.8467 0.818448 27.8467 0.815338C27.6967 0.876456 27.3967 1.33761 27.2355 1.58763L27.229 1.59772C26.8195 2.22862 26.3592 2.93779 25.5965 2.93779C25.5298 2.93779 25.4631 2.93223 25.3909 2.92112C25.2798 2.89889 25.0298 2.86555 24.6464 2.86555C23.8019 2.86555 20.8849 3.06001 18.7847 5.59916C17.1901 7.52714 15.1176 8.67727 13.2507 8.67727C11.8061 8.67727 10.5671 8.01608 9.66705 6.76039C8.73917 5.46581 8.278 4.93798 7.97242 4.5935C7.58349 4.14901 7.4057 3.93233 6.98899 3.12669C6.20557 1.60431 5.84999 1.58763 5.83332 1.58763C5.81665 1.58763 5.76664 1.6043 5.69441 1.67653C4.46384 2.85217 3.21698 3.28365 2.21161 3.63156L2.17738 3.64341C1.04392 4.03234 0.666106 4.21013 0.58832 4.80464V4.8491L0.571652 4.89354C0.549428 4.96021 0.571645 5.03244 0.677212 5.16578C0.843896 4.79352 1.26061 4.61573 2.18293 4.29903C3.19414 3.95455 4.44983 3.52117 5.69996 2.33215C5.77774 2.25992 5.82219 2.24327 5.83886 2.24327C5.85553 2.24327 6.21113 2.25993 6.99455 3.78231C7.41126 4.59351 7.58349 4.80463 7.97798 5.24912C8.28357 5.5936 8.74472 6.12145 9.67259 7.41603C10.5727 8.67172 11.8117 9.33289 13.2563 9.33289C15.1232 9.33289 17.1956 8.18278 18.7902 6.2548C20.8904 3.71565 23.8074 3.52117 24.6519 3.52117C25.0353 3.52117 25.2853 3.55451 25.3965 3.57674C25.4631 3.58785 25.5354 3.59341 25.602 3.59341C26.3647 3.59341 26.8251 2.88422 27.2346 2.25331L27.2411 2.24327C27.4022 1.99324 27.7023 1.53208 27.8523 1.47096C27.8523 1.47096 27.8689 1.48206 27.8912 1.49873C28.2079 1.72653 28.5357 1.89878 28.8579 2.06547L28.8654 2.06941C29.7298 2.52377 30.6219 2.99267 31.5471 4.6824L31.6638 4.89354L31.8971 4.95465C36.7032 6.15477 37.5533 8.47724 37.7644 10.8053C38.0255 13.7833 40.6703 20.7896 41.3759 21.6175C41.537 21.8786 41.8648 23.3399 42.1482 29.9017C42.1538 29.8962 42.1704 29.8906 42.176 29.885V29.7795C41.8815 22.7676 41.5426 21.2397 41.3759 20.9674L41.3703 20.9619ZM94.8482 28.5738C94.4592 27.2181 94.2536 26.0402 94.2259 24.9734C94.2147 24.4456 94.2148 23.9177 94.2148 23.3955C94.2036 24.1344 94.2036 24.879 94.2259 25.629C94.2536 26.6958 94.4537 27.8737 94.8482 29.2294C94.9839 29.7019 95.2948 30.2115 95.6253 30.7531L95.6482 30.7907C96.0205 31.3963 96.4205 32.0575 96.5539 32.6242C96.7595 31.9575 96.1761 30.9963 95.6482 30.1406L95.6253 30.103C95.2948 29.5614 94.9839 29.0518 94.8482 28.5793V28.5738ZM74.7294 16.7337C74.7072 18.6061 74.8072 20.334 75.2739 21.5619C75.485 22.1176 75.5906 22.5398 75.635 22.8899C75.7017 22.4454 75.635 21.8731 75.2739 20.9119C74.8627 19.8284 74.7349 18.3561 74.7294 16.7337ZM72.6458 31.5074C72.6458 31.5074 72.5958 31.5185 72.5792 31.5241C72.5958 31.563 72.6236 31.613 72.668 31.6852C72.6766 31.6852 72.6869 31.6869 72.6995 31.6889C72.7194 31.6922 72.7451 31.6963 72.7792 31.6963C73.1125 31.6963 73.4959 31.5185 73.6682 31.3407C73.6848 31.313 73.7001 31.2852 73.7154 31.2574L73.7224 31.2447C73.7279 31.2347 73.7334 31.2247 73.7391 31.2147C73.7467 31.2011 73.7545 31.1876 73.7626 31.1741C73.7626 31.0018 73.796 30.7184 73.846 30.374C73.5793 30.9407 73.2014 31.3907 72.6514 31.5074H72.6458ZM35.6253 24.2844C35.742 23.5121 35.8975 22.4676 35.8587 21.4453C35.8316 22.2244 35.7202 22.9825 35.6323 23.581L35.6253 23.6288C35.6211 23.6572 35.617 23.685 35.6128 23.7124L35.602 23.7838C35.5827 23.9106 35.565 24.0268 35.5531 24.1344C35.4975 24.5456 35.253 25.3846 34.8752 26.3402C35.0752 25.8791 35.2753 25.4846 35.4753 25.179C35.5142 25.0234 35.5364 24.8956 35.5531 24.7901C35.5627 24.7248 35.5724 24.6553 35.5825 24.5826C35.5957 24.4881 35.6096 24.388 35.6253 24.2844ZM24.5019 22.512C24.613 22.7009 24.6631 22.9621 24.6853 23.2621C24.7131 22.6843 24.6853 22.1787 24.5019 21.8564C24.0908 21.1341 23.1129 18.1505 22.9629 16.6114C22.7629 17.706 24.0185 21.662 24.5019 22.512ZM41.8482 27.7459C41.8426 29.2239 41.7648 29.4572 41.1925 30.1628C41.186 30.1727 41.1794 30.1806 41.1728 30.1889C41.1683 30.1946 41.1637 30.2005 41.1592 30.2073C41.337 30.1962 41.5037 30.1573 41.6593 30.1128C41.8482 29.6683 41.8537 29.1183 41.8482 27.7459Z" fill="white"/>
<path d="M38.1201 9.47227C35.9309 9.47227 33.9863 8.22771 31.9916 6.9498L31.436 6.5942L31.5638 6.31639L32.1194 6.67199C36.3532 9.38894 40.0092 11.7336 46.2932 3.35498L46.4987 3.56055C43.1595 8.01658 40.4925 9.47784 38.1201 9.47784V9.47227Z" fill="white"/>
</svg>
