<svg width="20" height="19" viewBox="0 0 20 19" fill="none" xmlns="http://www.w3.org/2000/svg">
<path d="M10.0001 5.27246C7.74073 5.27246 5.90918 7.10401 5.90918 9.36337C5.90918 11.6227 7.74073 13.4543 10.0001 13.4543C12.2594 13.4543 14.091 11.6227 14.091 9.36337C14.0885 7.10501 12.2583 5.27496 10.0001 5.27246ZM10.0001 12.5452C8.24278 12.5452 6.81822 11.1207 6.81822 9.36337C6.81822 7.60606 8.24278 6.1815 10.0001 6.1815C11.7572 6.1815 13.1818 7.60606 13.1818 9.36337C13.1798 11.1197 11.7564 12.5431 10.0001 12.5452Z" fill="#C8C8C8"/>
<path d="M10.0001 3C4.86328 3 0 7.63057 0 9.36358C0 11.0966 4.86328 15.7272 10.0001 15.7272C15.1367 15.7272 19.9999 11.0966 19.9999 9.36358C19.9999 7.63057 15.1367 3 10.0001 3ZM10.0001 14.8181C5.10382 14.8181 0.909036 10.3991 0.909036 9.36358C0.909036 8.32804 5.10382 3.90904 10.0001 3.90904C14.8961 3.90904 19.0909 8.32804 19.0909 9.36358C19.0909 10.3991 14.8961 14.8181 10.0001 14.8181Z" fill="#C8C8C8"/>
<path d="M2 1L19 18" stroke="#C8C8C8"/>
</svg>
