<svg width="20" height="13" viewBox="0 0 20 13" fill="none" xmlns="http://www.w3.org/2000/svg">
<path d="M10.0001 2.27246C7.74073 2.27246 5.90918 4.10401 5.90918 6.36337C5.90918 8.62273 7.74073 10.4543 10.0001 10.4543C12.2594 10.4543 14.091 8.62273 14.091 6.36337C14.0885 4.10501 12.2583 2.27496 10.0001 2.27246ZM10.0001 9.54524C8.24278 9.54524 6.81822 8.12068 6.81822 6.36337C6.81822 4.60606 8.24278 3.1815 10.0001 3.1815C11.7572 3.1815 13.1818 4.60606 13.1818 6.36337C13.1798 8.11968 11.7564 9.54308 10.0001 9.54524Z" fill="#314E5C"/>
<path d="M10.0001 0C4.86328 0 0 4.63057 0 6.36358C0 8.09659 4.86328 12.7272 10.0001 12.7272C15.1367 12.7272 19.9999 8.09659 19.9999 6.36358C19.9999 4.63057 15.1367 0 10.0001 0ZM10.0001 11.8181C5.10382 11.8181 0.909036 7.39913 0.909036 6.36358C0.909036 5.32804 5.10382 0.909035 10.0001 0.909035C14.8961 0.909035 19.0909 5.32804 19.0909 6.36358C19.0909 7.39913 14.8961 11.8181 10.0001 11.8181Z" fill="#314E5C"/>
</svg>
