<svg width="20" height="20" viewBox="0 0 20 20" fill="none" xmlns="http://www.w3.org/2000/svg">
<path d="M17.013 3.02516C16.329 2.10932 15.3171 1.49371 14.1893 1.3073C13.0615 1.12089 11.9054 1.37814 10.963 2.02516L3.93803 6.83141C2.57797 7.74973 1.63841 9.17071 1.32604 10.7818C1.01368 12.3928 1.35409 14.062 2.27241 15.422C3.19072 16.7821 4.6117 17.7217 6.22276 18.034C7.83381 18.3464 9.50297 18.006 10.863 17.0877L15.438 14.0377C15.5764 13.9457 15.6726 13.8025 15.7055 13.6395C15.7383 13.4766 15.705 13.3073 15.613 13.1689C15.521 13.0305 15.3778 12.9343 15.2149 12.9015C15.052 12.8687 14.8827 12.9019 14.7443 12.9939L10.1693 16.0439C9.08407 16.7391 7.77003 16.9825 6.50783 16.722C5.24562 16.4615 4.1353 15.7178 3.41401 14.6497C2.69272 13.5816 2.41764 12.2739 2.64751 11.0057C2.87738 9.7376 3.59399 8.6096 4.64428 7.86266L11.6693 3.05641C12.0148 2.80877 12.4064 2.63288 12.821 2.53913C13.2357 2.44539 13.6649 2.43569 14.0833 2.51061C14.5017 2.58554 14.9009 2.74356 15.2573 2.97535C15.6136 3.20714 15.9199 3.508 16.158 3.86014C16.3961 4.21229 16.5612 4.60858 16.6436 5.02562C16.7259 5.44265 16.7239 5.87196 16.6375 6.28819C16.5512 6.70442 16.3823 7.09912 16.1409 7.44899C15.8994 7.79885 15.5903 8.09678 15.2318 8.32516L8.58178 12.7564C8.44325 12.8762 8.28075 12.965 8.10515 13.017C7.92955 13.069 7.74487 13.0829 7.56346 13.0579C7.38205 13.0328 7.20808 12.9693 7.05315 12.8716C6.89822 12.774 6.76591 12.6444 6.66505 12.4916C6.56419 12.3387 6.4971 12.1661 6.46827 11.9852C6.43943 11.8044 6.4495 11.6195 6.49781 11.4428C6.54613 11.2662 6.63157 11.1019 6.74844 10.9609C6.86531 10.8199 7.01091 10.7054 7.17553 10.6252L10.863 7.91266C10.9312 7.86383 10.989 7.80205 11.0332 7.73087C11.0775 7.65968 11.1073 7.58047 11.1209 7.49777C11.1346 7.41507 11.1318 7.33049 11.1127 7.24886C11.0937 7.16724 11.0587 7.09016 11.0099 7.02204C10.9611 6.95391 10.8993 6.89608 10.8281 6.85183C10.7569 6.80758 10.6777 6.77778 10.595 6.76415C10.5123 6.75051 10.4277 6.75329 10.3461 6.77234C10.2645 6.79139 10.1874 6.82633 10.1193 6.87516L6.46303 9.56891C6.17589 9.76073 5.9308 10.009 5.74271 10.2986C5.55462 10.5882 5.42747 10.913 5.36899 11.2534C5.31052 11.5937 5.32195 11.9424 5.40258 12.2781C5.48322 12.6139 5.63138 12.9298 5.83803 13.2064C6.22833 13.7238 6.80141 14.0727 7.44026 14.1819C8.07911 14.2911 8.73554 14.1523 9.27553 13.7939L15.9255 9.37516C16.4269 9.04033 16.8547 8.60686 17.183 8.10118C17.5113 7.59551 17.7331 7.02825 17.8348 6.43403C17.9366 5.8398 17.9162 5.23107 17.7749 4.64498C17.6336 4.05889 17.3744 3.50774 17.013 3.02516Z" fill="#314E5C"/>
</svg>
