<svg width="20" height="20" viewBox="0 0 20 20" fill="none" xmlns="http://www.w3.org/2000/svg">
<path fill-rule="evenodd" clip-rule="evenodd" d="M1.18471 6.6175C0.916181 9.03182 0.928154 11.8163 1.30182 14.2208C1.50858 15.5513 2.63075 16.5712 4.01595 16.6878L5.4636 16.8095C8.48213 17.0635 11.5178 17.0635 14.5364 16.8095L15.9841 16.6878C17.3693 16.5712 18.4914 15.5513 18.6981 14.2208C19.0718 11.8163 19.0839 9.03201 18.8153 6.61764C18.7806 6.33774 18.7416 6.05822 18.6981 5.77917C18.4914 4.4487 17.3693 3.42872 15.9841 3.3122L14.5364 3.19043C11.5178 2.93652 8.48213 2.93652 5.4636 3.19043L4.01595 3.3122C2.63075 3.42872 1.50858 4.4487 1.30182 5.77917C1.25847 6.05817 1.21943 6.33765 1.18471 6.6175ZM5.58812 4.57654C8.52382 4.32959 11.4761 4.32959 14.4118 4.57654L15.8595 4.69831C16.5826 4.75912 17.1684 5.29156 17.2763 5.98606C17.2875 6.05819 17.2984 6.13034 17.309 6.20253L11.9784 9.06818C10.748 9.72962 9.25195 9.72962 8.0215 9.06818L2.69097 6.20257C2.70157 6.13037 2.71248 6.0582 2.72368 5.98606C2.83162 5.29156 3.41739 4.75912 4.14046 4.69831L5.58812 4.57654ZM17.485 7.69957C17.6709 9.80299 17.6014 11.9224 17.2763 14.0139C17.1684 14.7084 16.5826 15.2409 15.8595 15.3017L14.4119 15.4235C11.4761 15.6704 8.52382 15.6704 5.58812 15.4235L4.14046 15.3017C3.41739 15.2409 2.83162 14.7084 2.72368 14.0139C2.39864 11.9224 2.32909 9.80308 2.51502 7.6996L7.32321 10.2844C8.98787 11.1793 11.0121 11.1793 12.6767 10.2844L17.485 7.69957Z" fill="#314E5C"/>
</svg>
