<svg width="20" height="20" viewBox="0 0 20 20" fill="none" xmlns="http://www.w3.org/2000/svg">
<path d="M19.839 8.14891C19.9279 8.14891 20 8.22098 20 8.30988V10C20 10.6326 19.9412 11.2511 19.8285 11.8511C18.9568 16.5116 14.8509 20.0337 9.92948 19.9997C4.40725 19.9617 -0.0122013 15.4998 2.53076e-05 9.97746C0.0121737 4.46508 4.48475 0 9.99999 0C12.7021 0 15.1537 1.07195 16.9537 2.8132C17.0187 2.87605 17.0203 2.97965 16.9564 3.04355L14.5653 5.43461C14.5038 5.49617 14.4043 5.49777 14.3412 5.43773C13.2115 4.36238 11.683 3.70219 9.99999 3.70219C6.52456 3.70219 3.72592 6.48094 3.70233 9.95629C3.67862 13.4545 6.50737 16.2978 9.99999 16.2978C12.8338 16.2978 15.2306 14.4257 16.0209 11.8511H10.161C10.0721 11.8511 9.99999 11.779 9.99999 11.6901V8.30984C9.99999 8.22094 10.0721 8.14887 10.161 8.14887H19.839V8.14891Z" fill="#2196F3"/>
<path d="M19.8398 8.14893H18.6325C18.7214 8.14893 18.7935 8.221 18.7935 8.3099V10C18.7935 10.6326 18.7348 11.2511 18.6221 11.8511C17.7904 16.2973 14.0152 19.7072 9.39648 19.982C9.5732 19.9924 9.75109 19.9985 9.93023 19.9997C14.8517 20.0337 18.9575 16.5116 19.8293 11.8511C19.942 11.2511 20.0007 10.6326 20.0007 10V8.30986C20.0007 8.221 19.9287 8.14893 19.8398 8.14893Z" fill="#1E88E5"/>
<path d="M4.27922 7.36258L1.24219 5.1682C2.94602 2.08652 6.2293 0 9.99953 0C12.7016 0 15.1532 1.07195 16.9532 2.8132C17.0182 2.87605 17.0199 2.97965 16.9559 3.04355L14.5649 5.43461C14.5034 5.49606 14.404 5.49797 14.3411 5.43805C13.2113 4.3625 11.6827 3.70223 9.99953 3.70223C7.46313 3.70223 5.2768 5.2016 4.27922 7.36258Z" fill="#F44336"/>
<path d="M3.40234 6.72902L4.2791 7.3625C5.18965 5.39008 7.09074 3.96953 9.34426 3.73652C9.36121 3.73469 9.3775 3.73246 9.39477 3.73082C9.19645 3.71199 8.99547 3.70215 8.79219 3.70215C6.5009 3.70215 4.50402 4.91008 3.40234 6.72902Z" fill="#E53935"/>
<path d="M15.7466 2.8132C15.8116 2.87605 15.8133 2.97965 15.7494 3.04359L13.8086 4.98434C13.9946 5.12574 14.1725 5.27699 14.3414 5.43777C14.4045 5.49781 14.504 5.49621 14.5655 5.43465L16.9566 3.04359C17.0205 2.97965 17.0188 2.87609 16.9539 2.8132C15.1539 1.07195 12.7023 0 10.0002 0C9.79742 0 9.59625 0.00675781 9.39648 0.0186719C11.859 0.165352 14.0817 1.20258 15.7466 2.8132Z" fill="#E53935"/>
<path d="M17.3364 16.796C15.5102 18.7666 12.8994 20 10.0008 20C6.0857 20 2.69617 17.7501 1.05469 14.4724L4.15527 12.3477C5.0857 14.6628 7.3525 16.2978 10.0008 16.2978C11.6627 16.2978 13.1742 15.6539 14.2994 14.602L17.3364 16.796Z" fill="#4CAF50"/>
<path d="M4.15453 12.3477L3.24023 12.9742C4.30215 14.9525 6.39039 16.2977 8.79277 16.2977C8.99594 16.2977 9.19676 16.2878 9.395 16.269C7.01027 16.0416 5.0132 14.4843 4.15453 12.3477Z" fill="#43A047"/>
<path d="M10.0005 20.0002C12.8991 20.0002 15.51 18.7668 17.3362 16.7962L16.5923 16.2588C14.8776 18.3928 12.3054 19.8084 9.39844 19.982C9.59766 19.9939 9.79836 20.0002 10.0005 20.0002Z" fill="#43A047"/>
<path d="M3.70223 9.99977C3.70223 10.8295 3.86277 11.6219 4.15453 12.3475L1.05391 14.4722C0.379492 13.1265 0 11.6074 0 9.99977C0 8.24727 0.450703 6.60016 1.24266 5.16797L4.27969 7.36234C3.90906 8.16434 3.70223 9.05813 3.70223 9.99977Z" fill="#FFC107"/>
<path d="M3.23941 12.9741L4.1537 12.3476C3.86195 11.6221 3.7014 10.8297 3.7014 9.9999C3.7014 9.05826 3.90823 8.16447 4.27886 7.36248L3.4021 6.729C2.83277 7.66904 2.50234 8.77213 2.49429 9.95623C2.48687 11.0482 2.75745 12.0763 3.23941 12.9741Z" fill="#FFB300"/>
</svg>
