<svg width="20" height="20" viewBox="0 0 20 20" fill="none" xmlns="http://www.w3.org/2000/svg">
<path d="M13 4.5C13 2.568 11.432 1 9.5 1C7.568 1 6 2.568 6 4.5C6 6.432 7.568 8 9.5 8C11.432 8 13 6.432 13 4.5ZM7.4 4.5C7.4 3.345 8.345 2.4 9.5 2.4C10.655 2.4 11.6 3.345 11.6 4.5C11.6 5.655 10.655 6.6 9.5 6.6C8.345 6.6 7.4 5.655 7.4 4.5Z" fill="#314E5C"/>
<path d="M3 15C3 19 7.225 19 9.5 19C11.775 19 16 19 16 15C16 11.6933 13.0822 9 9.5 9C5.91778 9 3 11.6933 3 15ZM9.5 10.3333C12.2878 10.3333 14.5556 12.4267 14.5556 15C14.5556 16.9933 13.2772 17.6667 9.5 17.6667C5.72278 17.6667 4.44444 16.9933 4.44444 15C4.44444 12.4267 6.71222 10.3333 9.5 10.3333Z" fill="#314E5C"/>
</svg>
