<svg width="20" height="20" viewBox="0 0 20 20" fill="none" xmlns="http://www.w3.org/2000/svg">
<path fill-rule="evenodd" clip-rule="evenodd" d="M5.65715 4.46153C5.65715 2.54978 7.19217 1 9.08569 1H10.9143C12.8078 1 14.3428 2.54978 14.3428 4.46153V6.75384C14.7902 6.78975 15.2071 6.82615 15.5719 6.85952C16.7515 6.96744 17.6877 7.90379 17.7948 9.09955C17.8905 10.1665 18 11.6325 18 12.7692C18 13.9059 17.8905 15.372 17.7948 16.439C17.6877 17.6347 16.7515 18.5711 15.5719 18.679C14.09 18.8145 11.7478 19 10 19C8.25218 19 5.90994 18.8145 4.4281 18.679C3.24856 18.5711 2.31228 17.6347 2.20514 16.439C2.10953 15.372 2 13.9059 2 12.7692C2 11.6325 2.10953 10.1665 2.20514 9.09955C2.31228 7.90379 3.24856 6.96744 4.4281 6.85952C4.79288 6.82615 5.2098 6.78975 5.65715 6.75384V4.46153ZM6.38805 8.08615C6.39171 8.08592 6.39536 8.08565 6.399 8.08535C7.601 7.99678 8.92498 7.92308 10 7.92308C11.075 7.92308 12.399 7.99678 13.601 8.08535C13.6046 8.08565 13.6083 8.08592 13.6119 8.08615C14.2843 8.13577 14.918 8.18998 15.4481 8.23852C15.9728 8.28649 16.382 8.6995 16.429 9.22429C16.5242 10.2861 16.6285 11.6994 16.6285 12.7692C16.6285 13.8391 16.5242 15.2523 16.429 16.3141C16.382 16.839 15.9728 17.2519 15.4481 17.3C13.9677 17.4354 11.6799 17.6153 10 17.6153C8.32009 17.6153 6.03226 17.4354 4.55187 17.3C4.02722 17.2519 3.61802 16.839 3.57099 16.3141C3.47584 15.2523 3.37143 13.8391 3.37143 12.7692C3.37143 11.6994 3.47584 10.2861 3.57099 9.22429C3.61802 8.69941 4.02722 8.28649 4.55187 8.23852C5.08204 8.18998 5.71577 8.13577 6.38805 8.08615ZM12.9715 6.65369C11.9556 6.58756 10.8992 6.53846 10 6.53846C9.1008 6.53846 8.04432 6.58756 7.02857 6.65369V4.46153C7.02857 3.31448 7.94958 2.38461 9.08569 2.38461H10.9143C12.0504 2.38461 12.9715 3.31448 12.9715 4.46153V6.65369ZM10 11.1539C10.3787 11.1539 10.6857 11.4638 10.6857 11.8462V13.6923C10.6857 14.0747 10.3787 14.3846 10 14.3846C9.62133 14.3846 9.31431 14.0747 9.31431 13.6923V11.8462C9.31431 11.4638 9.62133 11.1539 10 11.1539Z" fill="#314E5C"/>
</svg>
